<?xml version="1.0" encoding="utf-8"?>
<!-- Generator: Adobe Illustrator 18.0.0, SVG Export Plug-In . SVG Version: 6.00 Build 0)  -->
<!DOCTYPE svg PUBLIC "-//W3C//DTD SVG 1.1//EN" "http://www.w3.org/Graphics/SVG/1.1/DTD/svg11.dtd">
<svg version="1.1" id="Layer_1" xmlns="http://www.w3.org/2000/svg" xmlns:xlink="http://www.w3.org/1999/xlink" x="0px" y="0px"
	 viewBox="3 0 26 32" enable-background="new 3 0 26 32" xml:space="preserve">
<g>
	<path fill="#85C808" d="M5,9c-1.1,0-2,0.9-2,2v8c0,1.1,0.9,2,2,2s2-0.9,2-2v-8C7,9.9,6.1,9,5,9z"/>
	<path fill="#85C808" d="M27,9c-1.1,0-2,0.9-2,2v8c0,1.1,0.9,2,2,2s2-0.9,2-2v-8C29,9.9,28.1,9,27,9z"/>
	<path fill="#85C808" d="M8,25h2v5c0,1.1,0.9,2,2,2s2-0.9,2-2v-5h4v5c0,1.1,0.9,2,2,2s2-0.9,2-2v-5h2V10H8V25z"/>
	<path fill="#85C808" d="M20.7,2.5l1-1.8c0.1-0.2,0.1-0.5-0.2-0.7C21.3-0.1,21,0,20.9,0.3l-1,1.7c-1.1-0.6-2.5-1-3.9-1
		c-1.4,0-2.7,0.4-3.9,1l-1-1.7C11,0,10.7-0.1,10.4,0.1c-0.2,0.1-0.3,0.4-0.2,0.7l1,1.8C9.3,4,8,6.3,8,9h16C24,6.3,22.7,4,20.7,2.5z
		 M13,6c-0.6,0-1-0.4-1-1s0.4-1,1-1s1,0.4,1,1S13.6,6,13,6z M19,6c-0.6,0-1-0.4-1-1s0.4-1,1-1s1,0.4,1,1S19.6,6,19,6z"/>
</g>
</svg>
