<?xml version="1.0" encoding="utf-8"?>
<!-- Generator: Adobe Illustrator 18.0.0, SVG Export Plug-In . SVG Version: 6.00 Build 0)  -->
<!DOCTYPE svg PUBLIC "-//W3C//DTD SVG 1.1//EN" "http://www.w3.org/Graphics/SVG/1.1/DTD/svg11.dtd">
<svg version="1.1" id="Lager_1" xmlns="http://www.w3.org/2000/svg" xmlns:xlink="http://www.w3.org/1999/xlink" x="0px" y="0px"
	 viewBox="1223.6 290.9 542.2 646.7" enable-background="new 1223.6 290.9 542.2 646.7" xml:space="preserve">
<g>
	<path fill="#FFFFFF" d="M1531.6,442c-9.7,3.2-22.7,5.4-41.1,6.5c1-38.9,10.8-72.3,30.2-100.5c19.5-28,51.8-47.5,97.1-57.2
		c0,1,1,2.2,1,4.4c0,2.2,1,3.2,1,4.4s0,2.2,0,4.4c0,1,0,3.2,0,4.4c0,16.3-3.2,33.5-10.8,52.9c-7.6,19.5-19.5,37.8-35.6,54
		C1559.7,428.1,1545.6,437.8,1531.6,442z M1706.5,715.3c-18.3-25.9-27-55-27-86.4c0-29.2,8.7-56.2,24.8-81
		c8.7-12.9,23.8-28,44.3-46.5c-14.1-16.3-27-29.2-41.1-38.9c-24.8-17.3-51.8-24.8-83.2-24.8c-18.3,0-41.1,4.4-66.9,12.9
		c-25.9,8.7-44.3,12.9-56.2,12.9c-8.6,0-27-4.4-54-11.9c-27-7.6-50.8-11.9-69.1-11.9c-44.3,0-81,18.3-110.2,56.2
		s-44.3,86.4-44.3,145.8c0,62.6,19.5,128.5,57.2,195.4c38.9,66.9,77.8,100.5,117.8,100.5c12.9,0,30.2-4.4,51.8-12.9
		c20.5-8.7,39.9-12.9,55-12.9c17.3,0,36.7,4.4,58.4,12.9c23.8,8.7,42.1,12.9,54,12.9c33.5,0,66.9-25.9,100.5-76.7
		c21.6-32.4,37.8-64.8,47.5-97.1C1745.4,757.4,1724.9,740.1,1706.5,715.3z"/>
</g>
</svg>
