<?xml version="1.0" encoding="utf-8"?>
<!-- Generator: Adobe Illustrator 18.0.0, SVG Export Plug-In . SVG Version: 6.00 Build 0)  -->
<!DOCTYPE svg PUBLIC "-//W3C//DTD SVG 1.1//EN" "http://www.w3.org/Graphics/SVG/1.1/DTD/svg11.dtd">
<svg version="1.1" id="Layer_1" xmlns:sketch="http://www.bohemiancoding.com/sketch/ns"
	 xmlns="http://www.w3.org/2000/svg" xmlns:xlink="http://www.w3.org/1999/xlink" x="0px" y="0px" viewBox="0 0 16 16"
	 enable-background="new 0 0 16 16" xml:space="preserve">
<title></title>
<desc></desc>
<g id="Page-1">
	<g id="Core" transform="translate(-340.000000, -4.000000)">
		<g id="apps" transform="translate(340.000000, 4.000000)">
			<path id="Shape" d="M0,4h4V0H0V4L0,4z M6,16h4v-4H6V16L6,16z M0,16h4v-4H0V16L0,16z M0,10h4V6H0V10L0,10z M6,10h4V6H6V10L6,10z
				 M12,0v4h4V0H12L12,0z M6,4h4V0H6V4L6,4z M12,10h4V6h-4V10L12,10z M12,16h4v-4h-4V16L12,16z"/>
		</g>
	</g>
</g>
</svg>
