<?xml version="1.0" encoding="utf-8"?>
<!-- Generator: Adobe Illustrator 18.0.0, SVG Export Plug-In . SVG Version: 6.00 Build 0)  -->
<!DOCTYPE svg PUBLIC "-//W3C//DTD SVG 1.1//EN" "http://www.w3.org/Graphics/SVG/1.1/DTD/svg11.dtd">
<svg version="1.1" id="Layer_1" xmlns="http://www.w3.org/2000/svg" xmlns:xlink="http://www.w3.org/1999/xlink" x="0px" y="0px"
	 viewBox="13.9 14.1 100.3 100.3" enable-background="new 13.9 14.1 100.3 100.3" xml:space="preserve">
<g>
	<g>
		<path d="M84.8,43.4c-0.8-0.8-2-0.8-2.8,0l-18,18l-18-18c-0.8-0.8-2-0.8-2.8,0c-0.8,0.8-0.8,2,0,2.8l18,18l-18,18
			c-0.8,0.8-0.8,2,0,2.8c0.4,0.4,0.9,0.6,1.4,0.6s1-0.2,1.4-0.6l18-18l18,18c0.4,0.4,0.9,0.6,1.4,0.6s1-0.2,1.4-0.6
			c0.8-0.8,0.8-2,0-2.8l-18-18l18-18C85.6,45.4,85.6,44.2,84.8,43.4z M64,14.1c-27.6,0-50.1,22.5-50.1,50.1
			c0,27.6,22.5,50.1,50.1,50.1c27.6,0,50.1-22.5,50.1-50.1C114.2,36.5,91.7,14.1,64,14.1z M64,110.3L64,110.3
			c-25.4,0-46.1-20.7-46.1-46.1c0-25.4,20.7-46.1,46.1-46.1s46.1,20.7,46.1,46.1C110.2,89.6,89.5,110.3,64,110.3z"/>
	</g>
</g>
</svg>
