<?xml version="1.0" encoding="utf-8"?>
<!-- Generator: Adobe Illustrator 18.0.0, SVG Export Plug-In . SVG Version: 6.00 Build 0)  -->
<!DOCTYPE svg PUBLIC "-//W3C//DTD SVG 1.1//EN" "http://www.w3.org/Graphics/SVG/1.1/DTD/svg11.dtd">
<svg version="1.1" id="Layer_1" xmlns="http://www.w3.org/2000/svg" xmlns:xlink="http://www.w3.org/1999/xlink" x="0px" y="0px"
	 viewBox="580.8 262 767.3 560.6" enable-background="new 580.8 262 767.3 560.6" xml:space="preserve">
<g id="Layer_2">
	<g>
		<path fill="#95A5A6" d="M1305.5,818H614.5c-18.6,0-33.8-15.1-33.8-33.8V295.8c0-18.6,15.1-33.8,33.8-33.8h690.9
			c18.6,0,33.8,15.1,33.8,33.8v488.5C1339.2,802.9,1324.1,818,1305.5,818z"/>
		<g>
			<path fill="#E1E3E9" d="M1339.2,354.8v-59.1c0-18.6-15.1-33.8-33.8-33.8H614.5c-18.6,0-33.8,15.1-33.8,33.8v59.1H1339.2z"/>
		</g>
		<circle fill="#F24B45" cx="630.9" cy="308.4" r="25.3"/>
		<circle fill="#FFB202" cx="706.9" cy="308.4" r="25.3"/>
		<circle fill="#4CBB41" cx="782.8" cy="308.4" r="25.3"/>
		<g>
			<g>
				<defs>
					<path id="SVGID_1_" d="M1305.5,818H614.5c-18.6,0-33.8-15.1-33.8-33.8V295.8c0-18.6,15.1-33.8,33.8-33.8h690.9
						c18.6,0,33.8,15.1,33.8,33.8v488.5C1339.2,802.9,1324.1,818,1305.5,818z"/>
				</defs>
				<clipPath id="SVGID_2_">
					<use xlink:href="#SVGID_1_"  overflow="visible"/>
				</clipPath>
				<polygon opacity="0.1" clip-path="url(#SVGID_2_)" enable-background="new    " points="680.4,597.8 904.6,822.7 1348.1,822.7 
					1348.1,671.3 1239.6,562.5 1132.7,537.6 1025.8,430.8 963.2,566.9 871.2,475 689.5,580.8 				"/>
			</g>
		</g>
		<g>
			<path fill="#FFFFFF" d="M680.4,563.7L871.2,475v42.1l-144.3,63.2v0.8l144.3,63.2v42.1l-190.8-88.6V563.7z"/>
			<path fill="#FFFFFF" d="M900.6,718.9l85-288.1h40.1l-85.1,288.1H900.6z"/>
			<path fill="#FFFFFF" d="M1239.6,599l-190.8,87.4v-42.1l147.4-63.2v-0.8l-147.5-63.2V475l190.8,87.4L1239.6,599L1239.6,599z"/>
		</g>
	</g>
</g>
</svg>
