<?xml version="1.0" encoding="utf-8"?>
<!-- Generator: Adobe Illustrator 18.0.0, SVG Export Plug-In . SVG Version: 6.00 Build 0)  -->
<!DOCTYPE svg PUBLIC "-//W3C//DTD SVG 1.1//EN" "http://www.w3.org/Graphics/SVG/1.1/DTD/svg11.dtd">
<svg version="1.1" id="Layer_1" xmlns="http://www.w3.org/2000/svg" xmlns:xlink="http://www.w3.org/1999/xlink" x="0px" y="0px"
	 viewBox="0 0 1853.4 1051.2" enable-background="new 0 0 1853.4 1051.2" xml:space="preserve">
<g opacity="0.18">
	<g>
		<g>
			<circle fill="#939393" cx="960" cy="478.6" r="64.8"/>
		</g>
	</g>
	<g id="Layer_1_1_">
		<g>
			<g>
				<path fill="#787878" d="M939.8,453.5h11.3v31.8c0,14.3-6.9,19.3-17.8,19.3c-2.7,0-6.1-0.4-8.3-1.2l1.3-9.2
					c1.6,0.5,3.6,0.9,5.8,0.9c4.8,0,7.8-2.2,7.8-9.8L939.8,453.5L939.8,453.5z"/>
				<path fill="#787878" d="M961,492.1c3,1.6,7.8,3.1,12.6,3.1c5.2,0,7.9-2.2,7.9-5.6c0-3.1-2.3-4.9-8.4-7c-8.3-3-13.9-7.6-13.9-15
					c0-8.4,7.3-14.9,19.1-14.9c5.7,0,9.8,1.2,12.8,2.6l-2.6,9.1c-1.9-0.9-5.6-2.3-10.4-2.3c-4.9,0-7.3,2.3-7.3,4.8
					c0,3.2,2.7,4.7,9.3,7.1c8.8,3.2,13,7.9,13,15c0,8.4-6.4,15.6-20.2,15.6c-5.7,0-11.4-1.6-14.3-3.1L961,492.1z"/>
			</g>
		</g>
	</g>
</g>
<g id="comment" opacity="6.000000e-02">
	<g>
		<path fill="#939393" d="M154,132.4c-1.2,0-2.4-0.4-3.4-1.2l-35.1-28.9H69.4c-6.9,0-12.7-5.8-12.7-12.9V12.7
			C56.7,5.6,62.5,0,69.4,0h109.9c7,0,12.7,5.6,12.7,12.7v76.7c0,7.1-5.7,12.9-12.7,12.9h-20.1v24.8c0,2-1.2,3.9-3,4.8
			C155.5,132.3,154.7,132.4,154,132.4z M69.4,10.5c-1.1,0-2,0.9-2,2.2v76.7c0,1.3,0.9,2.4,2,2.4h48c1.2,0,2.4,0.4,3.3,1.2l27.9,23
			V97.1c0-2.9,2.4-5.2,5.3-5.2h25.3c1.1,0,2.1-1.2,2.1-2.4V12.7c0-1.2-1-2.2-2.1-2.2L69.4,10.5L69.4,10.5z"/>
	</g>
</g>
<g opacity="0.18">
	<path fill="#939393" d="M409.8,306.5l1.6-2.4l1.5-2.3l3.5-5.2c0.4-0.6,0.3-1.5-0.4-1.9c-0.6-0.4-1.5-0.3-1.9,0.4l-3.7,5.6l-1.6,2.4
		l-1.6,2.4c-5-2-10.7-3-16.6-3c-5.9,0-11.5,1.1-16.6,3l-1.6-2.4l-1.6-2.4l-3.7-5.6c-0.4-0.6-1.3-0.8-1.9-0.4
		c-0.6,0.4-0.8,1.3-0.4,1.9l3.5,5.2l1.6,2.3l1.6,2.4c-11.8,5.5-19.8,16-19.8,27.9h78.1C429.6,322.4,421.6,312,409.8,306.5z
		 M373.8,323.2c-2.3,0-4.2-1.9-4.2-4.2c0-2.3,1.9-4.2,4.2-4.2c2.3,0,4.2,1.9,4.2,4.2C378,321.4,376.2,323.2,373.8,323.2z
		 M407.3,323.2c-2.3,0-4.2-1.9-4.2-4.2c0-2.3,1.9-4.2,4.2-4.2c2.3,0,4.2,1.9,4.2,4.2C411.5,321.4,409.6,323.2,407.3,323.2z"/>
	<path fill="#939393" d="M352.1,340h-0.6v7v5.7v48.7c0,4.9,4,8.8,8.8,8.8h6.4c-0.2,0.7-0.3,1.5-0.3,2.3v0.5v2.8v14.4
		c0,4.6,3.7,8.4,8.4,8.4s8.4-3.7,8.4-8.4v-14.4v-2.8v-0.5c0-0.8-0.1-1.6-0.3-2.3h15.5c-0.2,0.7-0.3,1.5-0.3,2.3v0.5v2.8v14.4
		c0,4.6,3.7,8.4,8.4,8.4c4.6,0,8.4-3.7,8.4-8.4v-14.4v-2.8v-0.5c0-0.8-0.1-1.6-0.3-2.3h6.4c4.9,0,8.8-4,8.8-8.8v-48.7v-5.7v-7H429
		C429,340,352.1,340,352.1,340z"/>
	<path fill="#939393" d="M337.6,340c-4.6,0-8.4,3.7-8.4,8.4v35.8c0,4.6,3.7,8.4,8.4,8.4c4.6,0,8.4-3.7,8.4-8.4v-35.8
		C346,343.7,342.2,340,337.6,340z"/>
	<path fill="#939393" d="M443.6,340c-4.6,0-8.4,3.7-8.4,8.4v35.8c0,4.6,3.7,8.4,8.4,8.4c4.6,0,8.4-3.7,8.4-8.4v-35.8
		C451.9,343.7,448.2,340,443.6,340z"/>
</g>
<g id="miu" opacity="0.25">
	<path id="device_camera_recorder_video_glyph" fill="#939393" d="M1034.9,680.1v57.1c0,11.4,11.4,11.4,11.4,11.4h68
		c0,0,11.4,0,11.4-11.4v-57.1c0-11.4-11.4-11.4-11.4-11.4h-68C1046.4,668.7,1034.9,668.7,1034.9,680.1z M1132.4,726.5l28.1,22.1
		v-79.9l-28.1,22.3V726.5z"/>
</g>
<g opacity="0.2">
	<path fill="#939393" d="M1262.9,528.8c0-14.2,10.8-25,25-25s25,10.8,25,25c0,14.2-10.8,25-25,25S1262.9,543,1262.9,528.8z
		 M1288,570.5c-38.4,0-50,27.5-50,27.5v14.2H1338V598C1338,598,1326.3,570.5,1288,570.5z"/>
</g>
<g opacity="0.2">
	<g>
		<circle fill="#939393" cx="1342.1" cy="524.6" r="20.8"/>
	</g>
	<g>
		<path fill="#939393" d="M1342.1,562.2c-10,0-17.5,2.5-23.3,6.7c19.2,9.2,26.7,25,26.7,26.7v0.8h34.2v-10.8
			C1379.7,584.7,1370.5,562.2,1342.1,562.2z"/>
	</g>
</g>
<g opacity="0.2">
	<g>
		<circle fill="#939393" cx="1342.1" cy="524.6" r="20.8"/>
	</g>
	<g>
		<path fill="#939393" d="M1342.1,562.2c-10,0-17.5,2.5-23.3,6.7c19.2,9.2,26.7,25,26.7,26.7v0.8h34.2v-10.8
			C1379.7,584.7,1370.5,562.2,1342.1,562.2z"/>
	</g>
</g>
<g opacity="0.2">
	<g>
		<circle fill="#939393" cx="1233.8" cy="524.6" r="20.8"/>
	</g>
	<g>
		<path fill="#939393" d="M1233.8,562.2c10,0,17.5,2.5,23.3,6.7c-19.2,9.2-26.7,25-26.7,26.7v0.8h-34.2v-10.8
			C1196.2,584.7,1205.4,562.2,1233.8,562.2z"/>
	</g>
</g>
<path opacity="8.000000e-02" fill="#939393" d="M1494.4,90c-3.8,25.5-11.2,33-24.4,50.2c-13.2,14.5-32.1,38.8-58.9,37.5
	c-24.3-4-31.4-11.8-47.7-25.7c-13.8-13.8-36.9-33.7-35.6-61.9c3.8-25.5,11.2-33,24.4-50.2c13.2-14.5,32.1-38.8,58.9-37.5
	c24.3,4,31.4,11.8,47.7,25.7C1472.6,41.9,1495.6,61.8,1494.4,90z"/>
<path opacity="8.000000e-02" fill="#787878" d="M1416.2,34.8c47.1,33.7,31.9,70.9,31.9,70.9s13.4,15.9,8,29.8c0,0-5.6-9.7-14.8-9.7
	c-8.9,0-14.2,9.7-32.2,9.7c-40,0-59-35.2-59-35.2c36.1,25,60.7,7.3,60.7,7.3c-16.3-9.9-50.8-57.4-50.8-57.4
	c30.1,27,43.1,34.1,43.1,34.1c-7.8-6.7-29.6-39.7-29.6-39.7c17.4,18.6,52.1,44.4,52.1,44.4C1435.5,60.4,1416.2,34.8,1416.2,34.8z"/>
<g opacity="0.25">
	<path fill="#929292" d="M839.2,689.5h-50.1c-3.6,0-6.6-3-6.6-6.6v-71.4c0-3.6,3-6.6,6.6-6.6h29.2c3.2,0,7.5,1.8,9.8,4l13.8,13.8
		c2.3,2.3,4,6.5,4,9.8v50.4C845.8,686.5,842.9,689.5,839.2,689.5z M789.1,607.9c-2,0-3.6,1.6-3.6,3.6v71.4c0,2,1.6,3.6,3.6,3.6h50.1
		c2,0,3.6-1.6,3.6-3.6v-50.4c0-2.4-1.5-5.9-3.1-7.6l-13.8-13.8c-1.7-1.7-5.2-3.1-7.6-3.1H789.1z"/>
</g>
<g opacity="0.25">
	<path fill="#929292" d="M839.2,628.9h-10.8c-3.6,0-6.6-3-6.6-6.6v-10.8c0-3.1,1.6-4.1,3.1-4.1c1,0,2.1,0.5,3.1,1.6l13.8,13.8
		c1.9,1.9,1.7,3.5,1.4,4.2C842.9,627.6,841.9,628.9,839.2,628.9z M825,610.4c-0.1,0.2-0.1,0.5-0.1,1.1v10.8c0,2,1.6,3.6,3.6,3.6
		h10.8c0.6,0,0.9-0.1,1.1-0.1c-0.1-0.2-0.2-0.4-0.6-0.8l-13.8-13.8C825.5,610.7,825.2,610.5,825,610.4z"/>
</g>
<g opacity="0.25">
	<path fill="#929292" d="M833.8,656.4h-39.6c-0.8,0-1.5-0.7-1.5-1.5s0.7-1.5,1.5-1.5h39.6c0.8,0,1.5,0.7,1.5,1.5
		S834.7,656.4,833.8,656.4z"/>
</g>
<g opacity="0.25">
	<path fill="#929292" d="M833.8,642h-39.6c-0.8,0-1.5-0.7-1.5-1.5c0-0.8,0.7-1.5,1.5-1.5h39.6c0.8,0,1.5,0.7,1.5,1.5
		C835.4,641.3,834.7,642,833.8,642z"/>
</g>
<g opacity="0.25">
	<path fill="#929292" d="M815.4,628.9h-21.2c-0.8,0-1.5-0.7-1.5-1.5s0.7-1.5,1.5-1.5h21.2c0.8,0,1.5,0.7,1.5,1.5
		S816.3,628.9,815.4,628.9z"/>
</g>
<g opacity="0.25">
	<path fill="#929292" d="M833.8,670.1h-39.6c-0.8,0-1.5-0.7-1.5-1.5s0.7-1.5,1.5-1.5h39.6c0.8,0,1.5,0.7,1.5,1.5
		S834.7,670.1,833.8,670.1z"/>
</g>
<path opacity="0.24" fill="#929292" d="M258.3,696.5H131.1c-7.4,0-13.4-6-13.4-13.4v-87c0-7.4,6-13.4,13.4-13.4h127.2
	c7.4,0,13.4,6,13.4,13.4v87C271.7,690.5,265.7,696.5,258.3,696.5z M265,596.1c0-3.7-3-6.7-6.7-6.7H131.1c-3.7,0-6.7,3-6.7,6.7v87
	c0,3.7,3,6.7,6.7,6.7h127.2c3.7,0,6.7-3,6.7-6.7V596.1z M252.8,675.5l-21.2-21.2l-12.1,12.1l11.2,11.2c1.3,1.3,1.3,3.3,0,4.6
	c-1.3,1.3-3.3,1.3-4.6,0l-48-48l-41.3,41.3c-1.3,1.3-3.3,1.3-4.6,0c-1.3-1.3-1.3-3.3,0-4.6l43.2-43.2c0.1-0.2,0.2-0.3,0.3-0.5
	c0.7-0.7,1.5-1,2.4-0.9c0.9,0,1.7,0.3,2.4,0.9c0.1,0.1,0.2,0.3,0.3,0.5l34.1,34.1l14-14c0.1-0.2,0.2-0.3,0.3-0.5
	c0.7-0.7,1.5-1,2.4-0.9c0.9,0,1.7,0.3,2.4,0.9c0.1,0.1,0.2,0.3,0.3,0.5l23.1,23.1c1.3,1.3,1.3,3.3,0,4.6
	C256.1,676.8,254,676.8,252.8,675.5z M211.5,622.9c-7.4,0-13.4-6-13.4-13.4s6-13.4,13.4-13.4s13.4,6,13.4,13.4
	S218.9,622.9,211.5,622.9z M211.5,602.8c-3.7,0-6.7,3-6.7,6.7s3,6.7,6.7,6.7s6.7-3,6.7-6.7S215.2,602.8,211.5,602.8z"/>
<path opacity="0.3" fill="#929292" d="M185.4,852.4c41.1,0,74.6,33.5,74.6,74.6c0,0.2,0,0.5,0,0.7c0,0.6-0.1,1.1-0.1,1.7l-0.3,11.3
	l11.3,0c27.3,0.1,49.6,22.4,49.6,49.7c0,27.3-22.2,49.6-49.5,49.7l-2.4,0H66.3c-30.4,0-55.2-24.8-55.2-55.2
	c0-23.6,15-44.6,37.3-52.2l6.2-2.1l1.1-6.5c2.7-16,16.4-27.6,32.6-27.6c5.2,0,10.2,1.2,14.8,3.6l10.1,5.1l4.9-10.2
	C130.5,869.1,156.9,852.4,185.4,852.4 M185.4,841.4c-34.1,0-63.4,20-77.2,48.8c-6-3-12.7-4.7-19.8-4.7c-21.9,0-40,15.9-43.5,36.8
	C18.8,931.2,0,955.8,0,984.9c0,36.6,29.7,66.3,66.3,66.3H271v0c33.4-0.2,60.5-27.3,60.5-60.8c0-33.5-27.1-60.7-60.6-60.8
	c0-0.9,0.1-1.7,0.1-2.6C271,879.7,232.7,841.4,185.4,841.4L185.4,841.4z"/>
<path opacity="0.28" fill="#929292" d="M1375.2,988.8h-95c-5.5,0-10-4.5-10-10v-65c0-5.5,4.5-10,10-10h95c5.5,0,10,4.5,10,10v65
	C1385.2,984.3,1380.7,988.8,1375.2,988.8z M1380.2,913.8c0-2.8-2.2-5-5-5h-95c-2.8,0-5,2.2-5,5v65c0,2.8,2.2,5,5,5h95
	c2.8,0,5-2.2,5-5V913.8z M1371,973.1l-15.8-15.8l-9,9l8.3,8.3c1,1,1,2.5,0,3.5c-1,1-2.5,1-3.5,0l-35.8-35.8l-30.8,30.8
	c-1,1-2.5,1-3.5,0c-1-1-1-2.5,0-3.5l32.2-32.2c0.1-0.1,0.1-0.3,0.2-0.4c0.5-0.5,1.1-0.7,1.8-0.7c0.6,0,1.3,0.2,1.8,0.7
	c0.1,0.1,0.2,0.2,0.2,0.4l25.5,25.5l10.5-10.5c0.1-0.1,0.1-0.3,0.2-0.4c0.5-0.5,1.1-0.7,1.8-0.7c0.6,0,1.3,0.2,1.8,0.7
	c0.1,0.1,0.2,0.2,0.2,0.4l17.3,17.3c1,1,1,2.5,0,3.5C1373.5,974,1372,974,1371,973.1z M1340.2,933.8c-5.5,0-10-4.5-10-10
	c0-5.5,4.5-10,10-10c5.5,0,10,4.5,10,10C1350.2,929.3,1345.7,933.8,1340.2,933.8z M1340.2,918.8c-2.8,0-5,2.2-5,5s2.2,5,5,5
	s5-2.2,5-5S1343,918.8,1340.2,918.8z"/>
<path opacity="5.000000e-02" fill="#929292" d="M776.1,113.8H648.9c-7.4,0-13.4-6-13.4-13.4v-87c0-7.4,6-13.4,13.4-13.4h127.2
	c7.4,0,13.4,6,13.4,13.4v87C789.5,107.8,783.5,113.8,776.1,113.8z M782.8,13.4c0-3.7-3-6.7-6.7-6.7H648.9c-3.7,0-6.7,3-6.7,6.7v87
	c0,3.7,3,6.7,6.7,6.7h127.2c3.7,0,6.7-3,6.7-6.7V13.4z M770.5,92.8l-21.2-21.2l-12.1,12.1l11.2,11.2c1.3,1.3,1.3,3.3,0,4.6
	c-1.3,1.3-3.3,1.3-4.6,0l-48-48l-41.3,41.3c-1.3,1.3-3.3,1.3-4.6,0c-1.3-1.3-1.3-3.3,0-4.6l43.2-43.2c0.1-0.2,0.2-0.3,0.3-0.5
	c0.7-0.7,1.5-1,2.4-0.9c0.9,0,1.7,0.3,2.4,0.9c0.1,0.1,0.2,0.3,0.3,0.5l34.1,34.1l14-14c0.1-0.2,0.2-0.3,0.3-0.5
	c0.7-0.7,1.5-1,2.4-0.9c0.9,0,1.7,0.3,2.4,0.9c0.1,0.1,0.2,0.3,0.3,0.5l23.1,23.1c1.3,1.3,1.3,3.3,0,4.6
	C773.9,94,771.8,94,770.5,92.8z M729.2,40.2c-7.4,0-13.4-6-13.4-13.4s6-13.4,13.4-13.4c7.4,0,13.4,6,13.4,13.4
	S736.6,40.2,729.2,40.2z M729.2,20.1c-3.7,0-6.7,3-6.7,6.7s3,6.7,6.7,6.7s6.7-3,6.7-6.7S732.9,20.1,729.2,20.1z"/>
<g opacity="8.000000e-02">
	<path fill="#939393" d="M1095.1,98.7c0-10.7,8.2-18.9,18.9-18.9S1133,88,1133,98.7s-8.2,18.9-18.9,18.9S1095.1,109.4,1095.1,98.7z
		 M1114,130.2c-29,0-37.8,20.8-37.8,20.8v10.7h75.7V151C1151.9,151,1143,130.2,1114,130.2z"/>
</g>
<g opacity="8.000000e-02">
	<g>
		<circle fill="#939393" cx="1155" cy="95.5" r="15.8"/>
	</g>
	<g>
		<path fill="#939393" d="M1155,123.9c-7.6,0-13.2,1.9-17.7,5c14.5,6.9,20.2,18.9,20.2,20.2v0.6h25.8v-8.2
			C1183.4,140.9,1176.5,123.9,1155,123.9z"/>
	</g>
</g>
<g opacity="8.000000e-02">
	<g>
		<circle fill="#939393" cx="1155" cy="95.5" r="15.8"/>
	</g>
	<g>
		<path fill="#939393" d="M1155,123.9c-7.6,0-13.2,1.9-17.7,5c14.5,6.9,20.2,18.9,20.2,20.2v0.6h25.8v-8.2
			C1183.4,140.9,1176.5,123.9,1155,123.9z"/>
	</g>
</g>
<g opacity="8.000000e-02">
	<g>
		<circle fill="#939393" cx="1073.1" cy="95.5" r="15.8"/>
	</g>
	<g>
		<path fill="#939393" d="M1073.1,123.9c7.6,0,13.2,1.9,17.7,5c-14.5,6.9-20.2,18.9-20.2,20.2v0.6h-25.8v-8.2
			C1044.7,140.9,1051.6,123.9,1073.1,123.9z"/>
	</g>
</g>
<g opacity="0.25">
	<path fill="#939393" d="M525.6,655.8c0-11.1,8.5-19.6,19.6-19.6c11.1,0,19.6,8.5,19.6,19.6s-8.5,19.6-19.6,19.6
		C534.1,675.4,525.6,666.9,525.6,655.8z M545.2,688.4c-30,0-39.1,21.5-39.1,21.5v11.1h78.3V710C584.3,710,575.2,688.4,545.2,688.4z"
		/>
</g>
<g opacity="0.25">
	<g>
		<circle fill="#939393" cx="587.6" cy="652.5" r="16.3"/>
	</g>
	<g>
		<path fill="#939393" d="M587.6,681.9c-7.8,0-13.7,2-18.3,5.2c15,7.2,20.9,19.6,20.9,20.9v0.7H617v-8.5
			C617,699.5,609.8,681.9,587.6,681.9z"/>
	</g>
</g>
<g opacity="0.25">
	<g>
		<circle fill="#939393" cx="587.6" cy="652.5" r="16.3"/>
	</g>
	<g>
		<path fill="#939393" d="M587.6,681.9c-7.8,0-13.7,2-18.3,5.2c15,7.2,20.9,19.6,20.9,20.9v0.7H617v-8.5
			C617,699.5,609.8,681.9,587.6,681.9z"/>
	</g>
</g>
<g opacity="0.25">
	<g>
		<circle fill="#939393" cx="502.8" cy="652.5" r="16.3"/>
	</g>
	<g>
		<path fill="#939393" d="M502.8,681.9c7.8,0,13.7,2,18.3,5.2c-15,7.2-20.9,19.6-20.9,20.9v0.7h-26.7v-8.5
			C473.4,699.5,480.6,681.9,502.8,681.9z"/>
	</g>
</g>
<g id="comment_1_" opacity="0.15">
	<g>
		<path fill="#939393" d="M917.3,331.1c-1.4,0-2.8-0.5-3.9-1.4l-41.2-33.9H818c-8.1,0-14.9-6.8-14.9-15.2v-90.1
			c0-8.3,6.7-14.9,14.9-14.9h129c8.2,0,14.9,6.6,14.9,14.9v90.1c0,8.3-6.7,15.2-14.9,15.2h-23.6v29.1c0,2.4-1.4,4.6-3.5,5.6
			C919.1,330.9,918.2,331.1,917.3,331.1z M818,188c-1.3,0-2.4,1.1-2.4,2.6v90.1c0,1.5,1.1,2.8,2.4,2.8h56.3c1.4,0,2.8,0.5,3.9,1.4
			l32.8,27v-22.2c0-3.4,2.8-6.1,6.2-6.1H947c1.3,0,2.5-1.4,2.5-2.8v-90.1c0-1.4-1.2-2.6-2.5-2.6H818L818,188z"/>
	</g>
</g>
<g opacity="0.16">
	<path fill="#929292" d="M133.9,415.6H54.1c-5.8,0-10.5-4.7-10.5-10.5V291.4c0-5.8,4.7-10.5,10.5-10.5h46.5c5.1,0,11.9,2.8,15.5,6.4
		l21.9,21.9c3.6,3.6,6.4,10.4,6.4,15.5v80.3C144.4,410.9,139.7,415.6,133.9,415.6z M54.1,285.8c-3.1,0-5.7,2.5-5.7,5.7v113.7
		c0,3.1,2.5,5.7,5.7,5.7h79.8c3.1,0,5.7-2.5,5.7-5.7v-80.3c0-3.8-2.3-9.4-5-12.1l-21.9-21.9c-2.7-2.7-8.3-5-12.1-5H54.1z"/>
</g>
<g opacity="0.16">
	<path fill="#929292" d="M133.9,319.1h-17.2c-5.8,0-10.5-4.7-10.5-10.5v-17.2c0-4.9,2.6-6.6,4.9-6.6c1.7,0,3.3,0.8,5,2.5l21.9,21.9
		c3.1,3.1,2.7,5.5,2.2,6.7C139.7,317.1,138.2,319.1,133.9,319.1z M111.3,289.8c-0.1,0.3-0.2,0.8-0.2,1.7v17.2c0,3.1,2.5,5.7,5.7,5.7
		h17.2c0.9,0,1.4-0.1,1.7-0.2c-0.1-0.3-0.4-0.7-1-1.3l-21.9-21.9C112,290.1,111.6,289.9,111.3,289.8z"/>
</g>
<g opacity="0.16">
	<path fill="#929292" d="M125.3,362.9h-63c-1.3,0-2.4-1.1-2.4-2.4s1.1-2.4,2.4-2.4h63c1.3,0,2.4,1.1,2.4,2.4
		S126.7,362.9,125.3,362.9z"/>
</g>
<g opacity="0.16">
	<path fill="#929292" d="M125.3,340h-63c-1.3,0-2.4-1.1-2.4-2.4c0-1.3,1.1-2.4,2.4-2.4h63c1.3,0,2.4,1.1,2.4,2.4
		C127.7,338.9,126.7,340,125.3,340z"/>
</g>
<g opacity="0.16">
	<path fill="#929292" d="M96,319.1H62.3c-1.3,0-2.4-1.1-2.4-2.4s1.1-2.4,2.4-2.4H96c1.3,0,2.4,1.1,2.4,2.4S97.3,319.1,96,319.1z"/>
</g>
<g opacity="0.16">
	<path fill="#929292" d="M125.3,384.9h-63c-1.3,0-2.4-1.1-2.4-2.4s1.1-2.4,2.4-2.4h63c1.3,0,2.4,1.1,2.4,2.4
		S126.7,384.9,125.3,384.9z"/>
</g>
<g opacity="0.29">
	<path fill="#929292" d="M1749,1015h-91.6c-6.7,0-12.1-5.4-12.1-12.1V872.6c0-6.7,5.4-12.1,12.1-12.1h53.3c5.8,0,13.7,3.2,17.8,7.4
		l25.1,25.1c4.1,4.1,7.4,12,7.4,17.8v92.1C1761.1,1009.6,1755.7,1015,1749,1015z M1657.5,866.1c-3.6,0-6.5,2.9-6.5,6.5v130.4
		c0,3.6,2.9,6.5,6.5,6.5h91.6c3.6,0,6.5-2.9,6.5-6.5v-92.1c0-4.3-2.7-10.8-5.7-13.9l-25.1-25.1c-3.1-3.1-9.5-5.7-13.9-5.7H1657.5z"
		/>
</g>
<g opacity="0.29">
	<path fill="#929292" d="M1749,904.3h-19.7c-6.7,0-12.1-5.4-12.1-12.1v-19.7c0-5.6,3-7.6,5.6-7.6c1.9,0,3.8,1,5.7,2.9l25.1,25.1
		c3.5,3.5,3.1,6.3,2.5,7.7C1755.7,902,1754,904.3,1749,904.3z M1723.1,870.6c-0.1,0.3-0.3,0.9-0.3,1.9v19.7c0,3.6,2.9,6.5,6.5,6.5
		h19.7c1,0,1.6-0.2,1.9-0.3c-0.1-0.3-0.4-0.8-1.2-1.5l-25.1-25.1C1723.9,871.1,1723.4,870.8,1723.1,870.6z"/>
</g>
<g opacity="0.29">
	<path fill="#929292" d="M1739.2,954.6h-72.3c-1.5,0-2.8-1.2-2.8-2.8s1.2-2.8,2.8-2.8h72.3c1.5,0,2.8,1.2,2.8,2.8
		S1740.7,954.6,1739.2,954.6z"/>
</g>
<g opacity="0.29">
	<path fill="#929292" d="M1739.2,928.2h-72.3c-1.5,0-2.8-1.2-2.8-2.8s1.2-2.8,2.8-2.8h72.3c1.5,0,2.8,1.2,2.8,2.8
		S1740.7,928.2,1739.2,928.2z"/>
</g>
<g opacity="0.29">
	<path fill="#929292" d="M1705.6,904.3h-38.7c-1.5,0-2.8-1.2-2.8-2.8s1.2-2.8,2.8-2.8h38.7c1.5,0,2.8,1.2,2.8,2.8
		S1707.1,904.3,1705.6,904.3z"/>
</g>
<g opacity="0.29">
	<path fill="#929292" d="M1739.2,979.7h-72.3c-1.5,0-2.8-1.2-2.8-2.8s1.2-2.8,2.8-2.8h72.3c1.5,0,2.8,1.2,2.8,2.8
		S1740.7,979.7,1739.2,979.7z"/>
</g>
<path opacity="0.12" fill="#939393" d="M712.9,335.2c-1.9,12.4-5.5,16-11.9,24.4c-6.4,7.1-15.6,18.9-28.6,18.2
	c-11.8-2-15.2-5.7-23.2-12.5c-6.7-6.7-17.9-16.4-17.3-30.1c1.9-12.4,5.5-16,11.9-24.4c6.4-7.1,15.6-18.9,28.6-18.2
	c11.8,2,15.2,5.7,23.2,12.5C702.3,311.8,713.5,321.5,712.9,335.2z"/>
<path opacity="0.12" fill="#787878" d="M674.9,308.4c22.9,16.4,15.5,34.4,15.5,34.4s6.5,7.7,3.9,14.5c0,0-2.7-4.7-7.2-4.7
	c-4.3,0-6.9,4.7-15.6,4.7c-19.5,0-28.7-17.1-28.7-17.1c17.5,12.2,29.5,3.5,29.5,3.5c-7.9-4.8-24.7-27.9-24.7-27.9
	c14.6,13.1,20.9,16.5,20.9,16.5c-3.8-3.3-14.4-19.3-14.4-19.3c8.5,9,25.3,21.6,25.3,21.6C684.3,320.8,674.9,308.4,674.9,308.4z"/>
<g opacity="0.18">
	<path fill="#939393" d="M1530.1,393.8l1.1-1.6l1-1.6l2.4-3.5c0.3-0.4,0.2-1-0.3-1.3c-0.4-0.3-1-0.2-1.3,0.3l-2.5,3.8l-1.1,1.6
		l-1.1,1.6c-3.4-1.3-7.2-2.1-11.3-2.1c-4,0-7.8,0.7-11.3,2.1l-1.1-1.6l-1.1-1.6l-2.5-3.8c-0.3-0.4-0.9-0.6-1.3-0.3
		c-0.4,0.3-0.6,0.9-0.3,1.3l2.4,3.5l1.1,1.6l1.1,1.6c-8,3.7-13.5,10.8-13.5,18.9h53C1543.5,404.6,1538.1,397.5,1530.1,393.8z
		 M1505.7,405.2c-1.6,0-2.8-1.3-2.8-2.8s1.3-2.8,2.8-2.8c1.6,0,2.8,1.3,2.8,2.8S1507.2,405.2,1505.7,405.2z M1528.4,405.2
		c-1.6,0-2.8-1.3-2.8-2.8s1.3-2.8,2.8-2.8c1.6,0,2.8,1.3,2.8,2.8S1530,405.2,1528.4,405.2z"/>
	<path fill="#939393" d="M1490.9,416.5h-0.4v4.7v3.9v33.1c0,3.3,2.7,6,6,6h4.3c-0.1,0.5-0.2,1-0.2,1.6v0.3v1.9v9.8
		c0,3.1,2.5,5.7,5.7,5.7s5.7-2.5,5.7-5.7v-9.8v-1.9v-0.3c0-0.5-0.1-1.1-0.2-1.6h10.5c-0.1,0.5-0.2,1-0.2,1.6v0.3v1.9v9.8
		c0,3.1,2.5,5.7,5.7,5.7s5.7-2.5,5.7-5.7v-9.8v-1.9v-0.3c0-0.5-0.1-1.1-0.2-1.6h4.3c3.3,0,6-2.7,6-6v-33.1v-3.9v-4.7h-0.4
		C1543.1,416.5,1490.9,416.5,1490.9,416.5z"/>
	<path fill="#939393" d="M1481.1,416.5c-3.1,0-5.7,2.5-5.7,5.7v24.3c0,3.1,2.5,5.7,5.7,5.7c3.1,0,5.7-2.5,5.7-5.7v-24.3
		C1486.7,419.1,1484.2,416.5,1481.1,416.5z"/>
	<path fill="#939393" d="M1553,416.5c-3.1,0-5.7,2.5-5.7,5.7v24.3c0,3.1,2.5,5.7,5.7,5.7c3.1,0,5.7-2.5,5.7-5.7v-24.3
		C1558.7,419.1,1556.1,416.5,1553,416.5z"/>
</g>
<g opacity="0.27">
	<g>
		<g>
			<circle fill="#939393" cx="1065.8" cy="904.3" r="68"/>
		</g>
	</g>
	<g id="Layer_1_2_">
		<g>
			<g>
				<path fill="#787878" d="M1044.6,877.9h11.8v33.3c0,15-7.2,20.3-18.6,20.3c-2.9,0-6.4-0.4-8.7-1.2l1.4-9.7c1.6,0.5,3.8,1,6.1,1
					c5,0,8.2-2.3,8.2-10.3L1044.6,877.9L1044.6,877.9z"/>
				<path fill="#787878" d="M1066.9,918.5c3.1,1.6,8.2,3.3,13.2,3.3c5.4,0,8.3-2.3,8.3-5.8c0-3.3-2.4-5.2-8.8-7.3
					c-8.7-3.1-14.5-8-14.5-15.8c0-8.8,7.6-15.6,20-15.6c6,0,10.3,1.2,13.5,2.7l-2.7,9.5c-2-1-5.8-2.4-10.9-2.4c-5.2,0-7.6,2.4-7.6,5
					c0,3.4,2.9,4.9,9.8,7.5c9.2,3.4,13.6,8.3,13.6,15.8c0,8.8-6.7,16.3-21.2,16.3c-6,0-12-1.6-15-3.3L1066.9,918.5z"/>
			</g>
		</g>
	</g>
</g>
<g opacity="0.16">
	<path fill="#929292" d="M1404,393.4h-53.5c-3.9,0-7.1-3.2-7.1-7.1v-76.2c0-3.9,3.2-7.1,7.1-7.1h31.2c3.4,0,8,1.9,10.4,4.3
		l14.7,14.7c2.4,2.4,4.3,7,4.3,10.4v53.9C1411.1,390.3,1407.9,393.4,1404,393.4z M1350.5,306.3c-2.1,0-3.8,1.7-3.8,3.8v76.2
		c0,2.1,1.7,3.8,3.8,3.8h53.5c2.1,0,3.8-1.7,3.8-3.8v-53.9c0-2.5-1.6-6.3-3.4-8.1l-14.7-14.7c-1.8-1.8-5.6-3.4-8.1-3.4H1350.5z"/>
</g>
<g opacity="0.16">
	<path fill="#929292" d="M1404,328.7h-11.5c-3.9,0-7.1-3.2-7.1-7.1v-11.5c0-3.3,1.8-4.4,3.3-4.4c1.1,0,2.2,0.6,3.4,1.7l14.7,14.7
		c2,2,1.8,3.7,1.5,4.5C1407.9,327.4,1406.9,328.7,1404,328.7z M1388.9,309c-0.1,0.2-0.2,0.5-0.2,1.1v11.5c0,2.1,1.7,3.8,3.8,3.8
		h11.5c0.6,0,0.9-0.1,1.1-0.2c-0.1-0.2-0.3-0.5-0.7-0.9l-14.7-14.7C1389.3,309.3,1389,309.1,1388.9,309z"/>
</g>
<g opacity="0.16">
	<path fill="#929292" d="M1398.3,358.1H1356c-0.9,0-1.6-0.7-1.6-1.6c0-0.9,0.7-1.6,1.6-1.6h42.3c0.9,0,1.6,0.7,1.6,1.6
		C1399.9,357.4,1399.2,358.1,1398.3,358.1z"/>
</g>
<g opacity="0.16">
	<path fill="#929292" d="M1398.3,342.7H1356c-0.9,0-1.6-0.7-1.6-1.6c0-0.9,0.7-1.6,1.6-1.6h42.3c0.9,0,1.6,0.7,1.6,1.6
		C1399.9,342,1399.2,342.7,1398.3,342.7z"/>
</g>
<g opacity="0.16">
	<path fill="#929292" d="M1378.6,328.7H1356c-0.9,0-1.6-0.7-1.6-1.6c0-0.9,0.7-1.6,1.6-1.6h22.6c0.9,0,1.6,0.7,1.6,1.6
		C1380.2,328,1379.5,328.7,1378.6,328.7z"/>
</g>
<g opacity="0.16">
	<path fill="#929292" d="M1398.3,372.8H1356c-0.9,0-1.6-0.7-1.6-1.6c0-0.9,0.7-1.6,1.6-1.6h42.3c0.9,0,1.6,0.7,1.6,1.6
		C1399.9,372.1,1399.2,372.8,1398.3,372.8z"/>
</g>
<g id="comment_2_" opacity="0.29">
	<g>
		<path fill="#939393" d="M742.1,1033.2c-1.2,0-2.4-0.4-3.4-1.2l-35.1-28.9h-46.1c-6.9,0-12.7-5.8-12.7-12.9v-76.7
			c0-7.1,5.7-12.7,12.7-12.7h109.9c7,0,12.7,5.6,12.7,12.7v76.7c0,7.1-5.7,12.9-12.7,12.9h-20.1v24.8c0,2-1.2,3.9-3,4.8
			C743.6,1033,742.9,1033.2,742.1,1033.2z M657.6,911.3c-1.1,0-2,0.9-2,2.2v76.7c0,1.3,0.9,2.4,2,2.4h48c1.2,0,2.4,0.4,3.3,1.2
			l27.9,23v-18.9c0-2.9,2.4-5.2,5.3-5.2h25.3c1.1,0,2.1-1.2,2.1-2.4v-76.7c0-1.2-1-2.2-2.1-2.2H657.6L657.6,911.3z"/>
	</g>
</g>
<path opacity="0.15" fill="#929292" d="M1740,310.3h-127.2c-7.4,0-13.4-6-13.4-13.4v-87c0-7.4,6-13.4,13.4-13.4H1740
	c7.4,0,13.4,6,13.4,13.4v87C1753.4,304.3,1747.4,310.3,1740,310.3z M1746.7,209.9c0-3.7-3-6.7-6.7-6.7h-127.2c-3.7,0-6.7,3-6.7,6.7
	v87c0,3.7,3,6.7,6.7,6.7H1740c3.7,0,6.7-3,6.7-6.7V209.9z M1734.4,289.3l-21.2-21.2l-12.1,12.1l11.2,11.2c1.3,1.3,1.3,3.3,0,4.6
	c-1.3,1.3-3.3,1.3-4.6,0l-48-48l-41.3,41.3c-1.3,1.3-3.3,1.3-4.6,0c-1.3-1.3-1.3-3.3,0-4.6l43.2-43.2c0.1-0.2,0.2-0.3,0.3-0.5
	c0.7-0.7,1.5-1,2.4-0.9c0.9,0,1.7,0.3,2.4,0.9c0.1,0.1,0.2,0.3,0.3,0.5l34.1,34.1l14-14c0.1-0.2,0.2-0.3,0.3-0.5
	c0.7-0.7,1.5-1,2.4-0.9c0.9,0,1.7,0.3,2.4,0.9c0.1,0.1,0.2,0.3,0.3,0.5l23.1,23.1c1.3,1.3,1.3,3.3,0,4.6
	C1737.7,290.5,1735.7,290.5,1734.4,289.3z M1693.1,236.7c-7.4,0-13.4-6-13.4-13.4s6-13.4,13.4-13.4c7.4,0,13.4,6,13.4,13.4
	S1700.5,236.7,1693.1,236.7z M1693.1,216.6c-3.7,0-6.7,3-6.7,6.7s3,6.7,6.7,6.7c3.7,0,6.7-3,6.7-6.7S1696.8,216.6,1693.1,216.6z"/>
<g id="miu_1_" opacity="0.1">
	<path id="device_camera_recorder_video_glyph_1_" fill="#939393" d="M501.9,183.5v39.4c0,7.9,7.9,7.9,7.9,7.9h46.9
		c0,0,7.9,0,7.9-7.9v-39.4c0-7.9-7.9-7.9-7.9-7.9h-46.9C509.8,175.7,501.9,175.7,501.9,183.5z M569.1,215.5l19.4,15.2v-55.1
		L569.1,191V215.5z"/>
</g>
<g opacity="0.2">
	<path fill="#929292" d="M1778.2,631.7v-14.6c0-0.8-0.3-1.6-0.9-2.2c-0.6-0.6-1.4-0.9-2.2-0.9h-43.4c-0.8,0-1.6,0.3-2.2,0.9
		c-0.6,0.6-0.9,1.4-0.9,2.2v14.6l-17,9.4c-0.2,0.1-0.3,0.2-0.4,0.4c-0.1,0.2-0.2,0.4-0.2,0.6v2.1c0,0.3,0.1,0.6,0.3,0.8
		c0.2,0.2,0.5,0.3,0.8,0.3h82.7c0.3,0,0.6-0.1,0.8-0.3c0.2-0.2,0.3-0.5,0.3-0.8v-2.1c0-0.2-0.1-0.4-0.2-0.6
		c-0.1-0.2-0.3-0.3-0.4-0.4L1778.2,631.7z"/>
	<path fill="#929292" d="M1851.1,477.5c-1.5-1.5-3.4-2.2-5.3-2.2h-184.9c-1.9,0-3.9,0.7-5.3,2.2c-1.5,1.5-2.2,3.4-2.2,5.3v119.7
		c0,1.9,0.7,3.9,2.2,5.3c1.5,1.5,3.4,2.2,5.3,2.2h184.9c1.9,0,3.9-0.7,5.3-2.2c1.5-1.5,2.2-3.4,2.2-5.3V482.9
		C1853.4,480.9,1852.6,479,1851.1,477.5z M1753.4,606.9c-1.8,0-3.3-1.5-3.3-3.3s1.5-3.3,3.3-3.3c1.8,0,3.3,1.5,3.3,3.3
		S1755.2,606.9,1753.4,606.9z M1840.3,597.1h-173.9V488.4h173.9V597.1z"/>
	<g>
		<path fill="#929292" d="M1694.4,586.8c-0.4,0-0.8,0.2-1.1,0.5c-0.3,0.3-0.5,0.7-0.5,1.1v1.2h16.8v-1.2c0-0.4-0.2-0.8-0.5-1.1
			c-0.3-0.3-0.7-0.5-1.1-0.5H1694.4z"/>
		<path fill="#929292" d="M1714.9,567.5c-0.4,0-0.8,0.2-1.1,0.5c-0.3,0.3-0.5,0.7-0.5,1.1v20.6h16.8V569c0-0.4-0.2-0.8-0.5-1.1
			c-0.3-0.3-0.7-0.5-1.1-0.5H1714.9z"/>
		<path fill="#929292" d="M1735.4,559.5c-0.4,0-0.8,0.1-1.1,0.5c-0.3,0.3-0.5,0.7-0.5,1.1v28.6h16.8V561c0-0.4-0.2-0.8-0.5-1.1
			c-0.3-0.3-0.7-0.5-1.1-0.5H1735.4z"/>
		<path fill="#929292" d="M1755.9,562.8c-0.4,0-0.8,0.1-1.1,0.5c-0.3,0.3-0.5,0.7-0.5,1.1v25.3h16.8v-25.3c0-0.4-0.2-0.8-0.5-1.1
			c-0.3-0.3-0.7-0.5-1.1-0.5C1769.5,562.8,1755.9,562.8,1755.9,562.8z"/>
		<path fill="#929292" d="M1776.4,550c-0.4,0-0.8,0.2-1.1,0.5c-0.3,0.3-0.5,0.7-0.5,1.1v38.1h16.8v-38.1c0-0.4-0.2-0.8-0.5-1.1
			c-0.3-0.3-0.7-0.5-1.1-0.5L1776.4,550L1776.4,550z"/>
		<path fill="#929292" d="M1796.9,534c-0.4,0-0.8,0.2-1.1,0.5c-0.3,0.3-0.5,0.7-0.5,1.1v54.1h16.8v-54.1c0-0.4-0.1-0.8-0.5-1.1
			c-0.3-0.3-0.7-0.5-1.1-0.5L1796.9,534L1796.9,534z"/>
		<path fill="#929292" d="M1824.7,504c0.2-0.4,0.2-0.8-0.1-1.2c-0.3-0.3-0.7-0.5-1.1-0.4l-16.8,4.9c-0.3,0.1-0.6,0.3-0.7,0.7
			c-0.1,0.3,0,0.7,0.2,1l2,2.6l-50.8,39.6l-28.2-11.9l-47,44.6c-0.3,0.3-0.5,0.7-0.5,1.1c0,0.4,0.2,0.8,0.4,1.1l2.2,2.3
			c0.3,0.3,0.7,0.5,1.1,0.5c0.4,0,0.8-0.2,1.1-0.4l44-41.8l27.8,11.8l53.7-41.9l2,2.6c0.2,0.3,0.5,0.4,0.9,0.4
			c0.4,0,0.7-0.2,0.8-0.5L1824.7,504z"/>
	</g>
</g>
<path opacity="0.28" fill="#929292" stroke="#929292" stroke-miterlimit="10" d="M489.1,952.7h-60c-3,0-5.4-2.4-5.4-5.4V819.5
	c0-3,2.4-5.4,5.4-5.4h60c3,0,5.4,2.4,5.4,5.4v127.8C494.5,950.2,492.1,952.7,489.1,952.7z"/>
<rect x="428.8" y="828.2" opacity="0.28" fill="#FFFFFF" width="60.5" height="105.4"/>
<line opacity="0.28" fill="none" stroke="#FFFFFF" stroke-width="6" stroke-linecap="round" stroke-miterlimit="10" x1="447.5" y1="823.1" x2="470.5" y2="823.1"/>
<circle opacity="0.28" fill="#FFFFFF" cx="458.9" cy="943.2" r="5.9"/>
<path opacity="0.23" fill="#929292" stroke="#929292" stroke-miterlimit="10" d="M1559.8,807.4h-60c-3,0-5.4-2.4-5.4-5.4V674.2
	c0-3,2.4-5.4,5.4-5.4h60c3,0,5.4,2.4,5.4,5.4V802C1565.2,805,1562.8,807.4,1559.8,807.4z"/>
<rect x="1499.5" y="683" opacity="0.23" fill="#FFFFFF" width="60.5" height="105.4"/>
<line opacity="0.23" fill="none" stroke="#FFFFFF" stroke-width="6" stroke-linecap="round" stroke-miterlimit="10" x1="1518.2" y1="677.9" x2="1541.1" y2="677.9"/>
<circle opacity="0.23" fill="#FFFFFF" cx="1529.6" cy="798" r="5.9"/>
<g opacity="9.000000e-02">
	<path fill="#929292" d="M378.7,169.1v-9.9c0-0.6-0.2-1.1-0.6-1.5c-0.4-0.4-1-0.6-1.5-0.6h-29.4c-0.6,0-1.1,0.2-1.5,0.6
		c-0.4,0.4-0.6,1-0.6,1.5v9.9l-11.5,6.4c-0.1,0.1-0.2,0.2-0.3,0.3c-0.1,0.1-0.1,0.3-0.1,0.4v1.4c0,0.2,0.1,0.4,0.2,0.5
		c0.1,0.1,0.3,0.2,0.5,0.2h56.1c0.2,0,0.4-0.1,0.5-0.2c0.1-0.1,0.2-0.3,0.2-0.5v-1.4c0-0.1,0-0.3-0.1-0.4c-0.1-0.1-0.2-0.2-0.3-0.3
		L378.7,169.1z"/>
	<path fill="#929292" d="M428.1,64.6c-1-1-2.3-1.5-3.6-1.5H299.1c-1.3,0-2.6,0.5-3.6,1.5c-1,1-1.5,2.3-1.5,3.6v81.2
		c0,1.3,0.5,2.6,1.5,3.6c1,1,2.3,1.5,3.6,1.5h125.4c1.3,0,2.6-0.5,3.6-1.5c1-1,1.5-2.3,1.5-3.6V68.3
		C429.6,66.9,429.1,65.6,428.1,64.6z M361.8,152.3c-1.2,0-2.3-1-2.3-2.3s1-2.3,2.3-2.3c1.2,0,2.3,1,2.3,2.3S363.1,152.3,361.8,152.3
		z M420.8,145.7H302.9V72h117.9V145.7z"/>
	<g>
		<path fill="#929292" d="M321.8,138.7c-0.3,0-0.5,0.1-0.8,0.3c-0.2,0.2-0.3,0.5-0.3,0.8v0.8h11.4v-0.8c0-0.3-0.1-0.5-0.3-0.8
			c-0.2-0.2-0.5-0.3-0.7-0.3H321.8z"/>
		<path fill="#929292" d="M335.7,125.6c-0.3,0-0.5,0.1-0.7,0.3c-0.2,0.2-0.3,0.5-0.3,0.8v14h11.4v-14c0-0.3-0.1-0.5-0.3-0.8
			c-0.2-0.2-0.5-0.3-0.8-0.3H335.7z"/>
		<path fill="#929292" d="M349.6,120.2c-0.3,0-0.5,0.1-0.8,0.3c-0.2,0.2-0.3,0.5-0.3,0.8v19.4H360v-19.4c0-0.3-0.1-0.5-0.3-0.8
			c-0.2-0.2-0.5-0.3-0.8-0.3H349.6z"/>
		<path fill="#929292" d="M363.5,122.4c-0.3,0-0.5,0.1-0.8,0.3c-0.2,0.2-0.3,0.5-0.3,0.8v17.1h11.4v-17.1c0-0.3-0.1-0.5-0.3-0.8
			c-0.2-0.2-0.5-0.3-0.7-0.3C372.8,122.4,363.5,122.4,363.5,122.4z"/>
		<path fill="#929292" d="M377.4,113.7c-0.3,0-0.5,0.1-0.8,0.3c-0.2,0.2-0.3,0.5-0.3,0.8v25.8h11.4v-25.8c0-0.3-0.1-0.5-0.3-0.8
			c-0.2-0.2-0.5-0.3-0.7-0.3L377.4,113.7L377.4,113.7z"/>
		<path fill="#929292" d="M391.3,102.9c-0.3,0-0.5,0.1-0.8,0.3c-0.2,0.2-0.3,0.5-0.3,0.8v36.7h11.4v-36.7c0-0.3-0.1-0.5-0.3-0.8
			c-0.2-0.2-0.5-0.3-0.8-0.3L391.3,102.9L391.3,102.9z"/>
		<path fill="#929292" d="M410.2,82.6c0.1-0.2,0.1-0.6-0.1-0.8c-0.2-0.2-0.5-0.3-0.8-0.2L398,84.9c-0.2,0.1-0.4,0.2-0.5,0.5
			c-0.1,0.2,0,0.5,0.1,0.7l1.4,1.8l-34.5,26.9l-19.1-8.1l-31.8,30.2c-0.2,0.2-0.3,0.4-0.3,0.7c0,0.3,0.1,0.6,0.3,0.8l1.5,1.5
			c0.2,0.2,0.5,0.3,0.7,0.3c0.3,0,0.6-0.1,0.8-0.3l29.8-28.3l18.8,8l36.4-28.4l1.4,1.8c0.1,0.2,0.4,0.3,0.6,0.3
			c0.2,0,0.5-0.2,0.6-0.3L410.2,82.6z"/>
	</g>
</g>
<path opacity="0.26" fill="#929292" stroke="#929292" stroke-miterlimit="10" d="M787.9,803.2c0,0.9-0.8,1.7-1.7,1.7h-40
	c-0.9,0-1.7-0.8-1.7-1.7l0,0c0-0.9,0.8-1.7,1.7-1.7h40C787.1,801.5,787.9,802.3,787.9,803.2L787.9,803.2z"/>
<path opacity="0.26" fill="#929292" stroke="#929292" stroke-miterlimit="10" d="M766.8,811.2c0,0.9-0.8,1.7-1.7,1.7h-18.7
	c-0.9,0-1.7-0.8-1.7-1.7l0,0c0-0.9,0.8-1.7,1.7-1.7h18.7C766.1,809.5,766.8,810.2,766.8,811.2L766.8,811.2z"/>
<path opacity="0.26" fill="#929292" stroke="#929292" stroke-miterlimit="10" d="M766.8,819.3c0,0.9-0.8,1.7-1.7,1.7h-18.7
	c-0.9,0-1.7-0.7-1.7-1.7l0,0c0-0.9,0.8-1.7,1.7-1.7h18.7C766.1,817.6,766.8,818.4,766.8,819.3L766.8,819.3z"/>
<path opacity="0.26" fill="#929292" stroke="#929292" stroke-miterlimit="10" d="M788.3,827.8c0,0.9-0.8,1.7-1.7,1.7h-40
	c-0.9,0-1.7-0.8-1.7-1.7l0,0c0-0.9,0.8-1.7,1.7-1.7h40C787.5,826.2,788.3,826.9,788.3,827.8L788.3,827.8z"/>
<path opacity="0.26" fill="#929292" stroke="#929292" stroke-miterlimit="10" d="M788.3,836.1c0,0.9-0.8,1.7-1.7,1.7h-40
	c-0.9,0-1.7-0.7-1.7-1.7l0,0c0-0.9,0.8-1.7,1.7-1.7h40C787.5,834.4,788.3,835.2,788.3,836.1L788.3,836.1z"/>
<g opacity="0.26">
	<path fill="none" stroke="#929292" stroke-width="3" stroke-miterlimit="10" d="M847.6,842.2c0,3.2-2.6,5.9-5.9,5.9h-98.1
		c-3.2,0-5.9-2.6-5.9-5.9V780c0-3.2,2.6-5.9,5.9-5.9h98.1c3.2,0,5.9,2.6,5.9,5.9V842.2z"/>
</g>
<line opacity="0.26" fill="none" stroke="#929292" stroke-width="3" stroke-miterlimit="10" x1="738.8" y1="789.1" x2="846.8" y2="789.1"/>
<circle opacity="0.26" fill="#231F20" stroke="#929292" stroke-miterlimit="10" cx="747.3" cy="781.8" r="1.5"/>
<circle opacity="0.26" fill="#231F20" stroke="#929292" stroke-miterlimit="10" cx="754.8" cy="781.7" r="1.5"/>
<circle opacity="0.26" fill="#231F20" stroke="#929292" stroke-miterlimit="10" cx="762.3" cy="781.8" r="1.5"/>
<rect x="806.3" y="802.4" opacity="0.26" fill="none" stroke="#929292" stroke-width="3" stroke-miterlimit="10" width="32" height="33.9"/>
<g id="miu_2_" opacity="6.000000e-02">
	<path id="device_camera_recorder_video_glyph_2_" fill="#939393" d="M1765.2,15.1v39.4c0,7.9,7.9,7.9,7.9,7.9h46.9
		c0,0,7.9,0,7.9-7.9V15.1c0-7.9-7.9-7.9-7.9-7.9h-46.9C1773.1,7.2,1765.2,7.2,1765.2,15.1z M1832.4,47.1l19.4,15.2V7.2l-19.4,15.4
		V47.1z"/>
</g>
<path opacity="7.000000e-02" fill="#929292" stroke="#929292" stroke-miterlimit="10" d="M1660,146.8h-40.4c-2,0-3.6-1.6-3.6-3.6
	v-86c0-2,1.6-3.6,3.6-3.6h40.4c2,0,3.6,1.6,3.6,3.6v86C1663.6,145.2,1662,146.8,1660,146.8z"/>
<rect x="1619.5" y="63.1" opacity="7.000000e-02" fill="#FFFFFF" width="40.7" height="70.9"/>
<line opacity="7.000000e-02" fill="none" stroke="#FFFFFF" stroke-width="6" stroke-linecap="round" stroke-miterlimit="10" x1="1632" y1="59.7" x2="1647.5" y2="59.7"/>
<circle opacity="7.000000e-02" fill="#FFFFFF" cx="1641.8" cy="141" r="3.6"/>
<path opacity="0.15" fill="#929292" stroke="#929292" stroke-miterlimit="10" d="M1146.8,327.2c0,0.9-0.8,1.7-1.7,1.7h-40
	c-0.9,0-1.7-0.8-1.7-1.7l0,0c0-0.9,0.8-1.7,1.7-1.7h40C1146,325.5,1146.8,326.3,1146.8,327.2L1146.8,327.2z"/>
<path opacity="0.15" fill="#929292" stroke="#929292" stroke-miterlimit="10" d="M1125.7,335.2c0,0.9-0.8,1.7-1.7,1.7h-18.7
	c-0.9,0-1.7-0.8-1.7-1.7l0,0c0-0.9,0.8-1.7,1.7-1.7h18.7C1125,333.5,1125.7,334.2,1125.7,335.2L1125.7,335.2z"/>
<path opacity="0.15" fill="#929292" stroke="#929292" stroke-miterlimit="10" d="M1125.7,343.3c0,0.9-0.8,1.7-1.7,1.7h-18.7
	c-0.9,0-1.7-0.7-1.7-1.7l0,0c0-0.9,0.8-1.7,1.7-1.7h18.7C1125,341.6,1125.7,342.4,1125.7,343.3L1125.7,343.3z"/>
<path opacity="0.15" fill="#929292" stroke="#929292" stroke-miterlimit="10" d="M1147.1,351.9c0,0.9-0.8,1.7-1.7,1.7h-40
	c-0.9,0-1.7-0.8-1.7-1.7l0,0c0-0.9,0.8-1.7,1.7-1.7h40C1146.4,350.2,1147.1,350.9,1147.1,351.9L1147.1,351.9z"/>
<path opacity="0.15" fill="#929292" stroke="#929292" stroke-miterlimit="10" d="M1147.1,360.1c0,0.9-0.8,1.7-1.7,1.7h-40
	c-0.9,0-1.7-0.7-1.7-1.7l0,0c0-0.9,0.8-1.7,1.7-1.7h40C1146.4,358.4,1147.1,359.2,1147.1,360.1L1147.1,360.1z"/>
<g opacity="0.15">
	<path fill="none" stroke="#929292" stroke-width="3" stroke-miterlimit="10" d="M1206.5,366.2c0,3.2-2.6,5.9-5.9,5.9h-98.1
		c-3.2,0-5.9-2.6-5.9-5.9v-62.1c0-3.2,2.6-5.9,5.9-5.9h98.1c3.2,0,5.9,2.6,5.9,5.9V366.2z"/>
</g>
<line opacity="0.15" fill="none" stroke="#929292" stroke-width="3" stroke-miterlimit="10" x1="1097.7" y1="313.1" x2="1205.7" y2="313.1"/>
<circle opacity="0.15" fill="#231F20" stroke="#929292" stroke-miterlimit="10" cx="1106.2" cy="305.8" r="1.5"/>
<circle opacity="0.15" fill="#231F20" stroke="#929292" stroke-miterlimit="10" cx="1113.6" cy="305.7" r="1.5"/>
<circle opacity="0.15" fill="#231F20" stroke="#929292" stroke-miterlimit="10" cx="1121.1" cy="305.8" r="1.5"/>
<rect x="1165.2" y="326.4" opacity="0.15" fill="none" stroke="#929292" stroke-width="3" stroke-miterlimit="10" width="32" height="33.9"/>
<path opacity="0.2" fill="#929292" stroke="#929292" stroke-miterlimit="10" d="M255.1,477.3c0,0.7-0.6,1.3-1.3,1.3h-30.8
	c-0.7,0-1.3-0.6-1.3-1.3l0,0c0-0.7,0.6-1.3,1.3-1.3h30.8C254.5,476,255.1,476.6,255.1,477.3L255.1,477.3z"/>
<path opacity="0.2" fill="#929292" stroke="#929292" stroke-miterlimit="10" d="M238.9,483.5c0,0.7-0.6,1.3-1.3,1.3h-14.4
	c-0.7,0-1.3-0.6-1.3-1.3l0,0c0-0.7,0.6-1.3,1.3-1.3h14.4C238.3,482.2,238.9,482.7,238.9,483.5L238.9,483.5z"/>
<path opacity="0.2" fill="#929292" stroke="#929292" stroke-miterlimit="10" d="M238.9,489.7c0,0.7-0.6,1.3-1.3,1.3h-14.4
	c-0.7,0-1.3-0.6-1.3-1.3l0,0c0-0.7,0.6-1.3,1.3-1.3h14.4C238.3,488.4,238.9,489,238.9,489.7L238.9,489.7z"/>
<path opacity="0.2" fill="#929292" stroke="#929292" stroke-miterlimit="10" d="M255.4,496.3c0,0.7-0.6,1.3-1.3,1.3h-30.8
	c-0.7,0-1.3-0.6-1.3-1.3l0,0c0-0.7,0.6-1.3,1.3-1.3h30.8C254.8,495,255.4,495.6,255.4,496.3L255.4,496.3z"/>
<path opacity="0.2" fill="#929292" stroke="#929292" stroke-miterlimit="10" d="M255.4,502.7c0,0.7-0.6,1.3-1.3,1.3h-30.8
	c-0.7,0-1.3-0.6-1.3-1.3l0,0c0-0.7,0.6-1.3,1.3-1.3h30.8C254.8,501.4,255.4,501.9,255.4,502.7L255.4,502.7z"/>
<g opacity="0.2">
	<path fill="none" stroke="#929292" stroke-width="3" stroke-miterlimit="10" d="M301.1,507.3c0,2.5-2,4.5-4.5,4.5h-75.5
		c-2.5,0-4.5-2-4.5-4.5v-47.8c0-2.5,2-4.5,4.5-4.5h75.5c2.5,0,4.5,2,4.5,4.5V507.3z"/>
</g>
<line opacity="0.2" fill="none" stroke="#929292" stroke-width="3" stroke-miterlimit="10" x1="217.4" y1="466.5" x2="300.5" y2="466.5"/>
<circle opacity="0.2" fill="#231F20" stroke="#929292" stroke-miterlimit="10" cx="223.9" cy="460.9" r="1.2"/>
<circle opacity="0.2" fill="#231F20" stroke="#929292" stroke-miterlimit="10" cx="229.6" cy="460.8" r="1.2"/>
<circle opacity="0.2" fill="#231F20" stroke="#929292" stroke-miterlimit="10" cx="235.4" cy="460.8" r="1.2"/>
<rect x="269.3" y="476.7" opacity="0.2" fill="none" stroke="#929292" stroke-width="3" stroke-miterlimit="10" width="24.6" height="26.1"/>
<g opacity="0.19">
	<path fill="#929292" d="M685.7,562.3V552c0-0.6-0.2-1.1-0.7-1.6c-0.4-0.4-1-0.7-1.6-0.7h-30.7c-0.6,0-1.1,0.2-1.6,0.7
		c-0.4,0.4-0.7,1-0.7,1.6v10.3l-12,6.7c-0.1,0.1-0.2,0.2-0.3,0.3c-0.1,0.1-0.1,0.3-0.1,0.4v1.5c0,0.2,0.1,0.4,0.2,0.6
		c0.2,0.2,0.4,0.2,0.6,0.2h58.5c0.2,0,0.4-0.1,0.6-0.2c0.2-0.2,0.2-0.4,0.2-0.6v-1.5c0-0.1,0-0.3-0.1-0.4c-0.1-0.1-0.2-0.2-0.3-0.3
		L685.7,562.3z"/>
	<path fill="#929292" d="M737.3,453.3c-1-1-2.4-1.6-3.8-1.6H602.8c-1.4,0-2.7,0.5-3.8,1.6c-1,1-1.6,2.4-1.6,3.8v84.6
		c0,1.4,0.5,2.7,1.6,3.8c1,1,2.4,1.6,3.8,1.6h130.7c1.4,0,2.7-0.5,3.8-1.6c1-1,1.6-2.4,1.6-3.8v-84.6
		C738.8,455.7,738.3,454.3,737.3,453.3z M668.1,544.8c-1.3,0-2.4-1.1-2.4-2.4c0-1.3,1.1-2.4,2.4-2.4c1.3,0,2.4,1.1,2.4,2.4
		C670.5,543.7,669.4,544.8,668.1,544.8z M729.6,537.8h-123V461h123V537.8z"/>
	<g>
		<path fill="#929292" d="M626.4,530.6c-0.3,0-0.6,0.1-0.8,0.3c-0.2,0.2-0.3,0.5-0.3,0.8v0.8h11.9v-0.8c0-0.3-0.1-0.6-0.3-0.8
			c-0.2-0.2-0.5-0.3-0.8-0.3H626.4z"/>
		<path fill="#929292" d="M640.9,516.9c-0.3,0-0.6,0.1-0.8,0.3c-0.2,0.2-0.3,0.5-0.3,0.8v14.6h11.9V518c0-0.3-0.1-0.6-0.3-0.8
			c-0.2-0.2-0.5-0.3-0.8-0.3H640.9z"/>
		<path fill="#929292" d="M655.4,511.2c-0.3,0-0.6,0.1-0.8,0.3c-0.2,0.2-0.3,0.5-0.3,0.8v20.2h11.9v-20.2c0-0.3-0.1-0.6-0.3-0.8
			c-0.2-0.2-0.5-0.3-0.8-0.3H655.4z"/>
		<path fill="#929292" d="M669.9,513.6c-0.3,0-0.6,0.1-0.8,0.3c-0.2,0.2-0.3,0.5-0.3,0.8v17.9h11.9v-17.9c0-0.3-0.1-0.6-0.3-0.8
			c-0.2-0.2-0.5-0.3-0.8-0.3C679.6,513.6,669.9,513.6,669.9,513.6z"/>
		<path fill="#929292" d="M684.4,504.5c-0.3,0-0.6,0.1-0.8,0.3c-0.2,0.2-0.3,0.5-0.3,0.8v26.9h11.9v-26.9c0-0.3-0.1-0.6-0.3-0.8
			c-0.2-0.2-0.5-0.3-0.8-0.3L684.4,504.5L684.4,504.5z"/>
		<path fill="#929292" d="M698.9,493.2c-0.3,0-0.6,0.1-0.8,0.3c-0.2,0.2-0.3,0.5-0.3,0.8v38.2h11.9v-38.2c0-0.3-0.1-0.6-0.3-0.8
			c-0.2-0.2-0.5-0.3-0.8-0.3L698.9,493.2L698.9,493.2z"/>
		<path fill="#929292" d="M718.6,472c0.1-0.3,0.1-0.6-0.1-0.8c-0.2-0.2-0.5-0.3-0.8-0.3l-11.9,3.5c-0.2,0.1-0.4,0.2-0.5,0.5
			c-0.1,0.2,0,0.5,0.1,0.7l1.4,1.8l-35.9,28l-19.9-8.4l-33.2,31.5c-0.2,0.2-0.3,0.5-0.3,0.8c0,0.3,0.1,0.6,0.3,0.8l1.5,1.6
			c0.2,0.2,0.5,0.3,0.8,0.3c0.3,0,0.6-0.1,0.8-0.3l31.1-29.5l19.6,8.3l38-29.6l1.4,1.8c0.1,0.2,0.4,0.3,0.6,0.3
			c0.3,0,0.5-0.2,0.6-0.4L718.6,472z"/>
	</g>
</g>
<path opacity="0.25" fill="#939393" d="M1414,792c-2.2,14.7-6.5,19-14,28.8c-7.6,8.4-18.4,22.3-33.9,21.5c-14-2.3-18-6.8-27.4-14.8
	c-7.9-8-21.2-19.4-20.5-35.6c2.2-14.7,6.5-19,14-28.8c7.6-8.4,18.4-22.3,33.9-21.5c14,2.3,18,6.8,27.4,14.8
	C1401.4,764.4,1414.7,775.8,1414,792z"/>
<path opacity="0.25" fill="#787878" d="M1369,760.3c27.1,19.4,18.3,40.7,18.3,40.7s7.7,9.1,4.6,17.1c0,0-3.2-5.6-8.5-5.6
	c-5.1,0-8.2,5.6-18.5,5.6c-23,0-33.9-20.2-33.9-20.2c20.7,14.4,34.9,4.2,34.9,4.2c-9.4-5.7-29.2-33-29.2-33
	c17.3,15.5,24.8,19.6,24.8,19.6c-4.5-3.9-17-22.8-17-22.8c10,10.7,29.9,25.5,29.9,25.5C1380.1,775,1369,760.3,1369,760.3z"/>
</svg>
