<?xml version="1.0" encoding="utf-8"?>
<!-- Generator: Adobe Illustrator 18.0.0, SVG Export Plug-In . SVG Version: 6.00 Build 0)  -->
<!DOCTYPE svg PUBLIC "-//W3C//DTD SVG 1.1//EN" "http://www.w3.org/Graphics/SVG/1.1/DTD/svg11.dtd">
<svg version="1.1" id="Layer_1" xmlns="http://www.w3.org/2000/svg" xmlns:xlink="http://www.w3.org/1999/xlink" x="0px" y="0px"
	 viewBox="144.9 -0.2 355.1 500" enable-background="new 144.9 -0.2 355.1 500" xml:space="preserve">
<g>
	<path fill="#646464" d="M441.8,143.4H155c-5.1,0-9.2-4-9.2-8.9V75.2c0-5,4.1-8.9,9.2-8.9h286.9c5.1,0,9.2,4,9.2,8.9v59.3
		C451,139.5,447,143.4,441.8,143.4z"/>
	<path fill="#646464" d="M224.2,432.9h-69.5c-5,0-8.9-4-8.9-8.9V75.2c0-5,4-8.9,8.9-8.9h69.5c5,0,8.9,4,8.9,8.9v348.9
		C233.1,429,229.1,432.9,224.2,432.9z"/>
	<path fill="#646464" d="M419.4,267.6H228.1c-2.9,0-5.3-2.3-5.3-5.2V222c0-2.8,2.4-5.2,5.3-5.2h191.6c2.9,0,5.3,2.3,5.3,5.2v40.6
		C424.7,265.3,422.4,267.6,419.4,267.6z"/>
	<path fill="#646464" d="M434.8,433.3H231.9c-5.1,0-9.1-4-9.1-8.9v-39c0-5,4.1-8.9,9.1-8.9h203c5.1,0,9.1,4,9.1,8.9v39
		C443.9,429.3,439.8,433.3,434.8,433.3z"/>
</g>
<path fill="#323232" d="M322.5,499.8c-98.1,0-177.5-20.4-177.5-45.4c0-13.7,0-28.6,0-45.4c0-2.6-0.1-13.3,0-14.4
	c0.4-2.3,7.9,5.2,10.3,6.4c26.2,13.6,89.4,30.6,167.2,30.6s143.2-12.9,167.2-30.6c2.1-1.6,6.2-1.2,7.5,0.7c1.7,2.4,2.8,4.8,2.8,7.4
	c0,13.2,0,27.1,0,45.4C500,479.4,420.4,499.8,322.5,499.8z M155.5,232.1c25.8,15,89.5,30.5,167,30.5c77.7,0,143.1-12.8,167-30.5
	c2.1-1.6,6.3-1.2,7.5,0.8l0,0l0,0c1.6,2.3,2.7,4.7,2.7,7.1c0,13.2,0,27,0,45.3c0.3,25-79.1,45.3-177.2,45.3S145,310,145,285.1
	c0-13.7,0-28.6,0-45.3c0-2.4-0.3-11.4-0.1-14v-2.4 M322.5,166c-98.1,0-177.5-24.7-177.5-55.4c0-8.7,0-18,0-27.7c0-8.9,0-17.9,0-27.7
	c0-30.6,79.4-55.4,177.5-55.4S500,24.5,500,55.2c0,8.6,0,17.9,0,27.7c0,8.5,0,17.3,0,27.7C500,141.1,420.4,166,322.5,166z
	 M326.8,21.6C261.5,21.6,208.5,40,208.5,63s52.9,41.4,118.4,41.4S445.1,86,445.1,63S392.2,21.6,326.8,21.6z"/>
</svg>
