<?xml version="1.0" encoding="utf-8"?>
<!-- Generator: Adobe Illustrator 18.0.0, SVG Export Plug-In . SVG Version: 6.00 Build 0)  -->
<!DOCTYPE svg PUBLIC "-//W3C//DTD SVG 1.1//EN" "http://www.w3.org/Graphics/SVG/1.1/DTD/svg11.dtd">
<svg version="1.1" id="Layer_1" xmlns="http://www.w3.org/2000/svg" xmlns:xlink="http://www.w3.org/1999/xlink" x="0px" y="0px"
	 viewBox="-77 -7.6 355.1 500" enable-background="new -77 -7.6 355.1 500" xml:space="preserve">
<g>
	<path fill="#FFFFFF" d="M220,136H-66.9c-5.1,0-9.2-4-9.2-8.9V67.8c0-5,4.1-8.9,9.2-8.9H220c5.1,0,9.2,4,9.2,8.9v59.3
		C229.1,132.1,225.1,136,220,136z"/>
	<path fill="#FFFFFF" d="M2.4,425.5h-69.5c-5,0-8.9-4-8.9-8.9V67.8c0-5,4-8.9,8.9-8.9H2.4c5,0,8.9,4,8.9,8.9v348.9
		C11.3,421.6,7.3,425.5,2.4,425.5z"/>
	<path fill="#FFFFFF" d="M197.5,260.2H6.2c-2.9,0-5.3-2.3-5.3-5.2v-40.5c0-2.8,2.4-5.2,5.3-5.2h191.6c2.9,0,5.3,2.3,5.3,5.2v40.6
		C202.8,257.9,200.6,260.2,197.5,260.2z"/>
	<path fill="#FFFFFF" d="M212.9,425.9H10c-5.1,0-9.1-4-9.1-8.9v-39c0-5,4.1-8.9,9.1-8.9h203c5.1,0,9.1,4,9.1,8.9v39
		C222,421.9,217.9,425.9,212.9,425.9z"/>
</g>
<path fill="#E6E6E6" d="M100.6,492.4C2.6,492.4-76.8,472-76.8,447c0-13.7,0-28.6,0-45.4c0-2.6-0.1-13.3,0-14.4
	c0.4-2.3,7.9,5.2,10.3,6.4c26.2,13.6,89.4,30.6,167.2,30.6s143.2-12.9,167.2-30.6c2.1-1.6,6.2-1.2,7.5,0.7c1.7,2.4,2.8,4.8,2.8,7.4
	c0,13.2,0,27.1,0,45.4C278.1,472,198.5,492.4,100.6,492.4z M-66.3,224.7c25.8,15,89.5,30.5,167,30.5c77.7,0,143.1-12.8,167-30.5
	c2.1-1.6,6.3-1.2,7.5,0.8l0,0l0,0c1.6,2.3,2.7,4.7,2.7,7.1c0,13.2,0,27,0,45.3c0.3,25-79.1,45.3-177.2,45.3s-177.5-20.5-177.5-45.4
	c0-13.7,0-28.6,0-45.3c0-2.4-0.3-11.4-0.1-14v-2.4 M100.6,158.6c-98.1,0-177.5-24.7-177.5-55.4c0-8.7,0-18,0-27.7
	c0-8.9,0-17.9,0-27.7c0-30.6,79.4-55.4,177.5-55.4s177.5,24.7,177.5,55.4c0,8.6,0,17.9,0,27.7c0,8.5,0,17.3,0,27.7
	C278.1,133.7,198.5,158.6,100.6,158.6z M104.9,14.2c-65.3,0-118.3,18.4-118.3,41.4S39.5,97,105,97s118.2-18.4,118.2-41.4
	S170.3,14.2,104.9,14.2z"/>
</svg>
