<?xml version="1.0" encoding="utf-8"?>
<!-- Generator: Adobe Illustrator 18.0.0, SVG Export Plug-In . SVG Version: 6.00 Build 0)  -->
<!DOCTYPE svg PUBLIC "-//W3C//DTD SVG 1.1//EN" "http://www.w3.org/Graphics/SVG/1.1/DTD/svg11.dtd">
<svg version="1.1" id="Layer_1" xmlns="http://www.w3.org/2000/svg" xmlns:xlink="http://www.w3.org/1999/xlink" x="0px" y="0px"
	 viewBox="406.2 0 1107.7 1080.5" enable-background="new 406.2 0 1107.7 1080.5" xml:space="preserve">
<path fill="#95A5A6" d="M960,0C655.4,0,406.2,249.2,406.2,553.8c0,245.8,159.2,453.5,377.3,526.2c27.7,3.5,38.1-10.4,38.1-27.7
	c0-13.8,0-48.5,0-96.9c-152.3,34.6-186.9-72.7-186.9-72.7c-24.2-62.3-62.3-79.6-62.3-79.6c-51.9-34.6,3.5-34.6,3.5-34.6
	c55.4,3.5,86.5,55.4,86.5,55.4c48.5,83.1,128.1,58.8,162.7,45c3.5-34.6,20.8-58.8,34.6-72.7C735,782.3,606.9,733.8,606.9,522.7
	c0-58.8,20.8-110.8,55.4-148.8c-6.9-13.8-24.2-69.2,6.9-145.4c0,0,45-13.8,152.3,55.4c45-13.8,90-17.3,138.5-17.3
	s93.5,6.9,138.5,17.3c107.3-72.7,152.3-55.4,152.3-55.4c31.2,76.2,10.4,131.5,6.9,145.4c34.6,38.1,55.4,86.5,55.4,148.8
	c0,211.2-128.1,259.6-252.7,273.5c20.8,17.3,38.1,51.9,38.1,100.4c0,69.2,0,135,0,152.3c0,13.8,10.4,31.2,38.1,24.2
	c218.1-65.8,377.3-273.5,377.3-519.2C1513.8,249.2,1264.6,0,960,0z"/>
</svg>
