<?xml version="1.0" encoding="utf-8"?>
<!-- Generator: Adobe Illustrator 18.0.0, SVG Export Plug-In . SVG Version: 6.00 Build 0)  -->
<!DOCTYPE svg PUBLIC "-//W3C//DTD SVG 1.1//EN" "http://www.w3.org/Graphics/SVG/1.1/DTD/svg11.dtd">
<svg version="1.1" id="Lager_1" xmlns="http://www.w3.org/2000/svg" xmlns:xlink="http://www.w3.org/1999/xlink" x="0px" y="0px"
	 viewBox="538.1 118.1 843.8 843.8" enable-background="new 538.1 118.1 843.8 843.8" xml:space="preserve">
<g>
	<g>
		<circle fill="#E3E3E3" cx="960" cy="540" r="421.9"/>
	</g>
	<g>
		<path fill="#3969B2" d="M882.4,649.7l14.3-8.4l-16,4.2c-23.6,6.8-27,14.3-27,20.2c1.7,15.2,40.5,27,85.2,27
			c23.6,0,58.2-3.4,93.7-18.6l5.1-1.7l-5.1-1.7c-16-6.8-28.7-13.5-28.7-13.5l-0.8-0.8h-0.8c-28.7,5.1-46.4,7.6-65,7.6
			c-11.8,0-24.5-0.8-42.2-2.5c-16-1.7-17.7-5.1-17.7-5.9C877.3,653.1,879.8,650.5,882.4,649.7z"/>
		<path fill="#3969B2" d="M1048.6,616.8l-5.9-2.5c-12.7-4.2-20.2-12.7-21.1-12.7l-0.8-0.8h-0.8c-34.6,6.8-61.6,9.3-88.6,9.3
			c-15.2,0-30.4-0.8-50.6-3.4c-13.5-1.7-16.9-5.1-16.9-6.8c-0.8-3.4,4.2-8.4,5.9-10.1l10.1-7.6l-12.7,4.2
			c-21.1,6.8-31.2,14.3-29.5,22.8c2.5,14.3,39.7,23.6,91.1,23.6c38,0,78.5-5.9,113.1-16H1048.6z"/>
		<path fill="#F3492C" d="M951.6,426.1c-6.8,21.1,0,44.7,21.1,68.3c6.8,7.6,10.1,16,9.3,24.5c-1.7,16-15.2,27.8-15.2,27.8
			l-15.2,12.7l17.7-9.3c1.7-0.8,36.3-18.6,42.2-45.6c2.5-11,0-21.9-6.8-32.1l-3.4-5.1c-11-16-20.2-27.8-16.9-42.2
			c4.2-19.4,30.4-41.3,85.2-73.4l12.7-7.6l-14.3,3.4C1062.9,349.3,967.6,372.9,951.6,426.1z"/>
		<path fill="#3969B2" d="M925.4,743.3c112.2,0,191.5-21.1,195.8-41.3c0.8-3.4-0.8-9.3-11-14.3l-14.3-6.8l11.8,10.1
			c0,0,3.4,2.5,2.5,5.9c-0.8,2.5-3.4,7.6-18.6,11.8c-29.5,10.1-97,16.9-163.7,16.9c-62.4,0-110.5-5.1-131.6-14.3
			c-2.5-0.8-4.2-2.5-4.2-3.4c0.8-4.2,18.6-11.8,31.2-14.3c8.4-1.7,13.5-1.7,16-1.7c0.8,0,0.8,0,0.8,0l7.6,0.8l-5.9-5.9
			c-3.4-2.5-8.4-3.4-15.2-3.4c-24.5,0-70.9,16.9-72.6,32.1c-0.8,7.6,8.4,13.5,27.8,16C830.1,739.1,878.2,743.3,925.4,743.3
			L925.4,743.3z"/>
		<path fill="#3969B2" d="M904.3,578.8c51.5,0,99.6-5.1,134.2-14.3h0.8c10.1-6.8,23.6-12.7,23.6-12.7l16.9-7.6l-18.6,4.2
			c0,0-39.7,6.8-78.5,10.1c-27,2.5-55.7,3.4-80.2,3.4c-18.6,0-34.6-0.8-44.7-2.5c-18.6-2.5-18.6-5.9-18.6-5.9
			c0-5.1,27-14.3,52.3-21.1l13.5-3.4l-13.5-0.8c0,0-1.7,0-3.4,0c-11.8,0-43,1.7-79.3,19.4c-3.4,1.7-11.8,5.9-11,11.8
			C799.7,574.6,856.2,578.8,904.3,578.8z"/>
		<path fill="#3969B2" d="M1069.7,534.9l-3.4,5.9l5.9-2.5c0,0,3.4-1.7,11-2.5c1.7,0,3.4-0.8,5.9-0.8c11.8,0,26.2,7.6,29.5,21.9
			c2.5,10.1,1.7,37.1-57.4,67.5h-0.8v0.8c0,0.8-0.8,1.7-1.7,1.7l-6.8,5.9l8.4-2.5c66.7-17.7,87.8-48.9,84.4-72.6
			c-2.5-20.2-21.1-34.6-44.7-34.6c-6.8,0-13.5,0.8-20.2,3.4C1073.1,529.9,1069.7,534.9,1069.7,534.9z"/>
		<path fill="#F3492C" d="M949,531.6l7.6,6.8l-4.2-9.3c-4.2-10.1-11.8-20.2-18.6-29.5c-22.8-32.9-46.4-65.8,17.7-116.4
			c42.2-32.9,64.1-65.8,65.8-97c1.7-27.8-13.5-43-14.3-43.9l-5.1-5.9l1.7,7.6c14.3,56.5-24.5,86.9-62.4,116.4
			c-18.6,15.2-38,30.4-50.6,48.1C861.3,447.2,901.8,488.5,949,531.6z"/>
		<path fill="#3969B2" d="M1140.6,715.5c0,0-8.4,16-75.9,28.7c-38.8,7.6-84.4,11-131.6,11c-38.8,0-76.8-2.5-105.5-7.6l-7.6-1.7
			l6.8,5.1c1.7,0.8,15.2,10.1,75.1,14.3c16.9,0.8,35.4,1.7,53.2,1.7l0,0c90.3,0,188.2-13.5,190.7-51.5l0.8-11.8L1140.6,715.5z"/>
	</g>
</g>
</svg>
