<?xml version="1.0" encoding="utf-8"?>
<!-- Generator: Adobe Illustrator 18.0.0, SVG Export Plug-In . SVG Version: 6.00 Build 0)  -->
<!DOCTYPE svg PUBLIC "-//W3C//DTD SVG 1.1//EN" "http://www.w3.org/Graphics/SVG/1.1/DTD/svg11.dtd">
<svg version="1.1" id="Lager_1" xmlns="http://www.w3.org/2000/svg" xmlns:xlink="http://www.w3.org/1999/xlink" x="0px" y="0px"
	 viewBox="538.1 118.1 843.8 843.8" enable-background="new 538.1 118.1 843.8 843.8" xml:space="preserve">
<g>
	<g>
		<g>
			<circle fill="#F0DB4F" cx="960" cy="540" r="421.9"/>
		</g>
	</g>
	<g id="Layer_1_1_">
		<g>
			<g>
				<path fill="#323330" d="M828.4,376.3h73.4V583c0,92.8-44.7,125.7-115.6,125.7c-17.7,0-39.7-2.5-54-7.6l8.4-59.9
					c10.1,3.4,23.6,5.9,38,5.9c31.2,0,50.6-14.3,50.6-64.1L828.4,376.3L828.4,376.3z"/>
				<path fill="#323330" d="M966.8,627.8c19.4,10.1,50.6,20.2,81.8,20.2c33.8,0,51.5-14.3,51.5-36.3c0-20.2-15.2-32.1-54.8-45.6
					c-54-19.4-90.3-49.8-90.3-97.9c0-54.8,47.2-97,124-97c37.1,0,64.1,7.6,83.5,16.9l-16.9,59.1c-12.7-5.9-36.3-15.2-67.5-15.2
					c-32.1,0-47.2,15.2-47.2,31.2c0,21.1,17.7,30.4,60.8,46.4c57.4,21.1,84.4,51.5,84.4,97.9c0,54.8-41.3,101.2-131.6,101.2
					c-37.1,0-74.2-10.1-92.8-20.2L966.8,627.8z"/>
			</g>
		</g>
	</g>
</g>
</svg>
