<?xml version="1.0" encoding="utf-8"?>
<!-- Generator: Adobe Illustrator 18.0.0, SVG Export Plug-In . SVG Version: 6.00 Build 0)  -->
<!DOCTYPE svg PUBLIC "-//W3C//DTD SVG 1.1//EN" "http://www.w3.org/Graphics/SVG/1.1/DTD/svg11.dtd">
<svg version="1.1" id="Layer_1" xmlns="http://www.w3.org/2000/svg" xmlns:xlink="http://www.w3.org/1999/xlink" x="0px" y="0px"
	 viewBox="0.7 3.9 27.3 24.2" enable-background="new 0.7 3.9 27.3 24.2" xml:space="preserve">
<g id="_x37__music_node">
	<path fill="#FFFFFF" d="M19.3,19.1C19.3,19.1,19.3,19.1,19.3,19.1c0-0.1,0-0.1,0-0.2c0,0,0-0.1,0-0.1c-4.8-2.9-4.1-11.7-9.6-14.7
		C9.5,4,9.3,3.9,9.1,3.9c-0.1,0-0.1,0-0.2,0c-0.4,0-0.8,0.4-0.8,0.8v17.5c-0.8-0.5-1.8-0.8-2.9-0.8c-2.5,0-4.5,1.5-4.5,3.4
		s2,3.4,4.5,3.4s4.5-1.5,4.5-3.4c0,0,0,0,0,0c0,0,0,0,0,0V11.1c2.6,1.6,2.7,6.2,6.2,7.8c0.5,0.2,1.3,0.4,2.2,0.5c0.1,0,0.2,0,0.3,0
		c0.1,0,0.1,0,0.2,0c0.1,0,0.2,0,0.3,0C19,19.2,19.1,19.2,19.3,19.1z"/>
</g>
<path fill="#FFFFFF" d="M18.3,28.1h-0.6c-0.6,0-1-0.4-1-1V4.9c0-0.6,0.4-1,1-1h0.6c0.6,0,1,0.4,1,1v22.2
	C19.3,27.7,18.9,28.1,18.3,28.1z"/>
<path fill="#FFFFFF" d="M27,28.1h-0.6c-0.6,0-1-0.4-1-1V4.9c0-0.6,0.4-1,1-1H27c0.6,0,1,0.4,1,1v22.2C28,27.7,27.5,28.1,27,28.1z"/>
<path fill="#FFFFFF" d="M25.4,19.1h-6.1c-0.7,0-1.3-0.6-1.3-1.3v0c0-0.7,0.6-1.3,1.3-1.3h6.1c0.7,0,1.3,0.6,1.3,1.3v0
	C26.7,18.5,26.1,19.1,25.4,19.1z"/>
</svg>
