<?xml version="1.0" encoding="utf-8"?>
<!-- Generator: Adobe Illustrator 18.0.0, SVG Export Plug-In . SVG Version: 6.00 Build 0)  -->
<!DOCTYPE svg PUBLIC "-//W3C//DTD SVG 1.1//EN" "http://www.w3.org/Graphics/SVG/1.1/DTD/svg11.dtd">
<svg version="1.1" id="Layer_1" xmlns="http://www.w3.org/2000/svg" xmlns:xlink="http://www.w3.org/1999/xlink" x="0px" y="0px"
	 viewBox="0 18.5 16 13.3" enable-background="new 0 18.5 16 13.3" xml:space="preserve">
<g>
	<path fill="#95A5A6" d="M9.4,21.3H10v0.5c0,0,0.1,0,0.1,0c1.2,0,2.3,1,2.4,2.2c0.1,0,0.1,0,0.2,0c0.2,0,0.4,0,0.6,0v-2.7H14
		c0.1,0,0.2-0.1,0.2-0.2s0-0.2-0.1-0.3l-2.3-2.3c0,0-0.1-0.1-0.2-0.1c-0.1,0-0.1,0-0.2,0.1l-2.3,2.3c-0.1,0.1-0.1,0.2-0.1,0.3
		C9.2,21.2,9.3,21.3,9.4,21.3z"/>
	<path fill="#95A5A6" d="M12.8,24.4c-0.2,0-0.4,0-0.6,0.1c0-0.1,0-0.2,0-0.3c0-1.1-0.9-2-2-2c-0.4,0-0.8,0.1-1.1,0.3
		c-0.5-1.4-1.9-2.4-3.4-2.4c-2,0-3.7,1.6-3.7,3.7c0,0.1,0,0.3,0,0.4c-0.7,0.1-1.2,0.6-1.2,1.3c0,0.3,0.1,0.6,0.3,0.8
		C0.4,26.8,0,27.5,0,28.4c0,1.4,1.1,2.5,2.5,2.5h2.8L4,29.7c-0.2-0.2-0.3-0.5-0.2-0.8c0.1-0.3,0.4-0.4,0.6-0.4h0.2v-2.6
		c0-0.2,0.1-0.4,0.2-0.5c0.1-0.1,0.3-0.2,0.5-0.2h2.8c0.2,0,0.4,0.1,0.5,0.2c0.1,0.1,0.2,0.3,0.2,0.5v2.6h0.2c0.3,0,0.5,0.2,0.6,0.4
		c0.1,0.3,0,0.6-0.2,0.8l-1.2,1.2h4.4c1.8,0,3.2-1.5,3.2-3.2C16,25.8,14.5,24.4,12.8,24.4z"/>
	<path fill="#95A5A6" d="M9.4,29.1c0-0.1-0.1-0.2-0.2-0.2H8.5v-3c0-0.1,0-0.1-0.1-0.2s-0.1-0.1-0.2-0.1H5.4c-0.1,0-0.1,0-0.2,0.1
		c-0.1,0.1-0.1,0.1-0.1,0.2v3H4.5c-0.1,0-0.2,0.1-0.2,0.2s0,0.2,0.1,0.3l2.3,2.3c0,0,0.1,0.1,0.2,0.1c0.1,0,0.1,0,0.2-0.1l2.3-2.3
		C9.4,29.3,9.4,29.2,9.4,29.1z"/>
</g>
</svg>
