<?xml version="1.0" encoding="utf-8"?>
<!-- Generator: Adobe Illustrator 18.0.0, SVG Export Plug-In . SVG Version: 6.00 Build 0)  -->
<!DOCTYPE svg PUBLIC "-//W3C//DTD SVG 1.1//EN" "http://www.w3.org/Graphics/SVG/1.1/DTD/svg11.dtd">
<svg version="1.1" id="Layer_1" xmlns="http://www.w3.org/2000/svg" xmlns:xlink="http://www.w3.org/1999/xlink" x="0px" y="0px"
	 viewBox="0 0 78.2 76.2" enable-background="new 0 0 78.2 76.2" xml:space="preserve">
<path d="M78.2,37.7l-3.7-16.3l-9.9-1.1l-2.5-3.1l1.1-9.9L48.1,0l-7,7h-4l-7-7L15,7.3l1.1,9.9l-2.5,3.1l-9.9,1.1L0,37.7L8.4,43
	l0.9,3.9L4,55.3l10.4,13.1l9.4-3.3l3.6,1.7l3.3,9.4h16.8l3.3-9.4l3.6-1.7l9.4,3.3l10.4-13.1l-5.3-8.4l0.9-3.9L78.2,37.7z M66.8,54.9
	l-5.1,6.4L54,58.6l-8.1,3.9l-2.7,7.7H35l-2.7-7.7l-8.1-3.9l-7.7,2.7l-5.1-6.4l4.4-6.9l-2-8.8l-6.9-4.3l1.8-8l8.1-0.9l5.6-7l-0.9-8.1
	l7.4-3.6l5.8,5.8h9l5.8-5.8l7.4,3.6l-0.9,8.1l5.6,7l8.1,0.9l1.8,8l-6.9,4.3l-2,8.8L66.8,54.9z M39.1,23.6c-8.3,0-15,6.7-15,15
	s6.7,15,15,15s15-6.7,15-15S47.4,23.6,39.1,23.6z M39.1,49.1c-5.8,0-10.5-4.7-10.5-10.5s4.7-10.5,10.5-10.5s10.5,4.7,10.5,10.5
	S44.9,49.1,39.1,49.1z"/>
</svg>
