<?xml version="1.0" encoding="utf-8"?>
<!-- Generator: Adobe Illustrator 18.0.0, SVG Export Plug-In . SVG Version: 6.00 Build 0)  -->
<!DOCTYPE svg PUBLIC "-//W3C//DTD SVG 1.1//EN" "http://www.w3.org/Graphics/SVG/1.1/DTD/svg11.dtd">
<svg version="1.1" id="Layer_1" xmlns="http://www.w3.org/2000/svg" xmlns:xlink="http://www.w3.org/1999/xlink" x="0px" y="0px"
	 viewBox="490.8 54.6 970.8 970.8" enable-background="new 490.8 54.6 970.8 970.8" xml:space="preserve">
<circle fill="#3765AF" stroke="#3765AF" stroke-miterlimit="10" cx="976.2" cy="540" r="485.4"/>
<path fill="#FFFFFF" d="M1040.8,163.9c305.5,207.8,206.5,436.4,206.5,436.4s86.8,97.9,51.9,183.7c0,0-36-60-95.7-60
	c-57.8,0-92,60-208.7,60c-259.5,0-382.3-216.7-382.3-216.7c233.6,154.1,393.4,44.9,393.4,44.9c-105.4-61-329.4-353.3-329.4-353.3
	c195.2,166.1,279.3,209.7,279.3,209.7c-50.6-41.4-191.7-244.7-191.7-244.7c112.9,114.3,337.4,273.4,337.4,273.4
	C1165.9,321.5,1040.8,163.9,1040.8,163.9z"/>
</svg>
