<?xml version="1.0" encoding="utf-8"?>
<!-- Generator: Adobe Illustrator 18.0.0, SVG Export Plug-In . SVG Version: 6.00 Build 0)  -->
<!DOCTYPE svg PUBLIC "-//W3C//DTD SVG 1.1//EN" "http://www.w3.org/Graphics/SVG/1.1/DTD/svg11.dtd">
<svg version="1.1" id="Layer_1" xmlns="http://www.w3.org/2000/svg" xmlns:xlink="http://www.w3.org/1999/xlink" x="0px" y="0px"
	 viewBox="2 3 28 27" enable-background="new 2 3 28 27" xml:space="preserve">
<path d="M21.9,16.3C23.2,14.9,24,13,24,11c0-4.4-3.6-8-8-8s-8,3.6-8,8s3.6,8,8,8c1.6,0,3-0.5,4.2-1.2c4.4,1.6,7.3,5.6,7.7,10.2H4
	c0.3-3.1,1.7-6,4.1-8.1c0.4-0.4,0.5-1,0.1-1.4c-0.4-0.4-1-0.5-1.4-0.1C3.8,21.1,2,25,2,29c0,0.6,0.4,1,1,1h26c0.6,0,1-0.4,1-1
	C30,23.5,26.8,18.6,21.9,16.3z M10,11c0-3.3,2.7-6,6-6s6,2.7,6,6s-2.7,6-6,6S10,14.3,10,11z"/>
</svg>
